<?xml version="1.0" encoding="utf-8"?>
<!-- Uploaded to: SVG Repo, www.svgrepo.com, Generator: SVG Repo Mixer Tools -->
<svg width="800px" height="800px" viewBox="0 -89.62 421.813 421.813" xmlns="http://www.w3.org/2000/svg"><defs><style>.a{fill:#ffffff;}.b{fill:#85807f;}.c{fill:#211715;}.d{fill:#4793cf;}.e{fill:#ffda71;}</style></defs><path class="a" d="M140.8,61.892a5.87,5.87,0,0,1,4.246-1.554,5.448,5.448,0,0,1,4.9,2.72c1.664,2.885,1.593,8.2.477,11.491-.791,2.329-2.087,5.893-5.21,8.448a6.472,6.472,0,0,1-4.992,1.441l-.479-.081a38.011,38.011,0,0,1-1.717,4.662c-1.3,3.53-8.633,16.128-17.821,20.566v2.684c-.7.57-15.068,11.895-16.157,12.667h-2.53c-1.089-.772-15.452-12.1-16.157-12.667v-3.22a34.7,34.7,0,0,1-10.231-8.708A44.671,44.671,0,0,1,66.646,84.35,6.349,6.349,0,0,1,61.245,83c-3.123-2.555-4.419-6.119-5.209-8.448-1.117-3.29-1.187-8.606.476-11.491a5.448,5.448,0,0,1,4.9-2.72,5.869,5.869,0,0,1,4.246,1.554S62.557,30.369,101,30.369,140.8,61.892,140.8,61.892Z"/><path class="a" d="M357.745,70.538a5.724,5.724,0,0,1,4.137-1.515,5.312,5.312,0,0,1,4.771,2.651c1.621,2.811,1.552,7.991.464,11.2-.77,2.269-2.033,5.742-5.076,8.232a6.307,6.307,0,0,1-4.863,1.4l-.336-.056c-.576,1.681-1.3,3.175-1.539,3.913-1.209,3.28-7.814,14.673-16.219,19.337v2.351c-.658.533-14.087,11.121-15.105,11.842h-2.365c-1.018-.721-14.446-11.309-15.1-11.842v-1.176a35.294,35.294,0,0,1-11.892-9.589,43,43,0,0,1-8-14.838,6.211,6.211,0,0,1-5.137-1.345c-3.043-2.49-4.305-5.963-5.075-8.232-1.088-3.2-1.157-8.385.464-11.2a5.311,5.311,0,0,1,4.77-2.651,5.723,5.723,0,0,1,4.137,1.515S281.5,40.313,321.335,40.313C362,40.313,357.745,70.538,357.745,70.538Z"/><path class="b" d="M281.7,38.513a43.477,43.477,0,0,1,14.268-17.549,45.378,45.378,0,0,1,45.959-3.414c9.409-11.43,23.771-5.45,25.545,3.8,1.158,6.04,1.51,9.771,4.275,15.229,2.846,5.618,5.226,6.322,10.177,8.647-3.787,5.593-8.7,10.395-16.753,9.109a46.137,46.137,0,0,1-1.932,14.862,7.336,7.336,0,0,0-1.356-.17,5.726,5.726,0,0,0-4.038,1.428c-6-1.238-12.262-7.25-15.857-11.84-3.437-4.387-5.588-9.657-7.4-15.608-5.509,6.2-14.841,11.285-25.235,16.98a142.553,142.553,0,0,1-17.5,6.848l-6.068,3.707a5.723,5.723,0,0,0-4.137-1.515,7.346,7.346,0,0,0-1.5.2,46.873,46.873,0,0,1-2-14.893,45.492,45.492,0,0,1,1.7-10.683A41.546,41.546,0,0,1,281.7,38.513Z"/><path class="a" d="M309.4,163.107c.938,2.656,1.858,5.277,2.737,7.849,3.648,10.673,5.683,15.24,9.905,25.588h1.507c4.222-10.348,6.257-14.915,9.9-25.588,4.536-13.271,10.163-27.877,13.764-41.678-1.208-.509-2.116-.895-2.116-.895a4.806,4.806,0,0,0-1.041-4.3c-1.517-1.756-3.428-4.3-4.978-6.031-.658.533-14.087,11.121-15.105,11.842h-2.365c-1.018-.721-14.446-11.309-15.1-11.842-1.55,1.734-3.461,4.275-4.978,6.031a4.806,4.806,0,0,0-1.041,4.3l-2.142.79C301.25,140.33,305.485,152.019,309.4,163.107Z"/><path class="b" d="M94.586,2.737a42.817,42.817,0,0,0-18.264,7.819,45.016,45.016,0,0,0-18.586,35.22,49.587,49.587,0,0,0,1.84,14.852,7.111,7.111,0,0,1,1.832-.29,5.869,5.869,0,0,1,4.246,1.554l6.005-5.042C76.166,51.828,84.12,44.259,89.7,41.331c.655-.343,1.5.122,1.761,1.215a7.2,7.2,0,0,1,.172,2.619,1.363,1.363,0,0,0,1.943,1.464c3.985-2.214,11.084-6.669,16.119-8.79a20.367,20.367,0,0,1,7.465.917,24.111,24.111,0,0,1,6.876,4.324c4.532,3.9,8.876,9.249,10.8,14.09l5.959,4.722a5.87,5.87,0,0,1,4.246-1.554,7.264,7.264,0,0,1,1.667.242,47.875,47.875,0,0,0,1.793-14.8c-.751-17.772-9.708-28.812-18.362-35.059a44.5,44.5,0,0,0-27.023-8.711A48.953,48.953,0,0,0,94.586,2.737Z"/><path class="c" d="M304.131,117.519a47.051,47.051,0,0,1-.588,4.777,28.115,28.115,0,0,1-.521,2.916c-.037.129-.268.7-.1.344a5.342,5.342,0,0,1-.3.538c-.163.258.19-.207-.019.029-.063.071-.127.141-.194.208a1.364,1.364,0,0,1-.511.385c-.514.3-1.065.5-1.6.74-2.779,1.264-5.54,2.57-8.313,3.846q-1.075.494-2.152.983c-.256.116-.513.228-.77.344-.49.22.477-.175.04-.018a2.05,2.05,0,0,0-1.4,2.46,2.018,2.018,0,0,0,2.46,1.4c1.115-.4,2.193-.958,3.268-1.451q2.559-1.173,5.111-2.361,1.885-.875,3.772-1.746a2.176,2.176,0,0,0,.3-.137c-.006,0-.749.3-.323.142.209-.077.414-.166.619-.253a7.881,7.881,0,0,0,1.1-.551,6.466,6.466,0,0,0,2.633-3.174,15.387,15.387,0,0,0,.689-3.219c.34-2.059.65-4.115.792-6.2a2,2,0,0,0-4,0Z"/><path class="c" d="M335.984,116.59a65.278,65.278,0,0,0,1.124,8.949,6.972,6.972,0,0,0,4.615,5.324c.727.289-.521-.258-.006-.009.185.089.373.173.559.26q.879.412,1.757.829,2.38,1.124,4.759,2.251c1.082.512,2.155,1.062,3.257,1.532a2.068,2.068,0,0,0,2.736-.718,2.013,2.013,0,0,0-.717-2.736c-2.337-1-4.61-2.172-6.9-3.258-1.115-.527-2.225-1.066-3.347-1.577a13.751,13.751,0,0,1-1.687-.8,2.065,2.065,0,0,1-.975-1.36,28.2,28.2,0,0,1-.6-3.321,47.847,47.847,0,0,1-.573-5.368,2.043,2.043,0,0,0-2-2,2.019,2.019,0,0,0-2,2Z"/><path class="c" d="M314.992,100.746a14.853,14.853,0,0,0,7.15,1.659,11.675,11.675,0,0,0,7.249-2.152,2,2,0,0,0,0-2.828,2.062,2.062,0,0,0-2.829,0c.616-.48.173-.138.015-.036q-.213.137-.437.253c-.078.04-.157.077-.234.116-.173.089-.3.032.113-.04a4.842,4.842,0,0,0-.6.219,10.959,10.959,0,0,1-1.687.385c.3-.047.043-.008-.117.008s-.332.03-.5.041c-.4.026-.8.036-1.2.034q-.537,0-1.073-.039c-.164-.011-.328-.024-.492-.041-.052-.005-.65-.1-.194-.02a14.391,14.391,0,0,1-1.576-.35c-.221-.066-.436-.145-.654-.219-.5-.17.334.168-.115-.044-.27-.127-.536-.26-.8-.4a2,2,0,1,0-2.018,3.454Z"/><path class="c" d="M321.051,84a33.292,33.292,0,0,1,.781,3.572l-.072-.532a2.2,2.2,0,0,1,.014.493l.071-.532a1.2,1.2,0,0,1-.054.222l.2-.478a.794.794,0,0,1-.078.143l.313-.405a.748.748,0,0,1-.117.115l.4-.313a2.319,2.319,0,0,1-.283.15l.478-.2a2.09,2.09,0,0,1-.477.14l.532-.072a1.865,1.865,0,0,1-.448,0l.532.072c-.169-.024-.334-.065-.5-.088a1.515,1.515,0,0,0-.8-.035,1.486,1.486,0,0,0-.743.237,2,2,0,0,0-.718,2.736,1.916,1.916,0,0,0,1.2.92c.4.053.786.154,1.192.172a3.836,3.836,0,0,0,1.776-.425,2.6,2.6,0,0,0,1.431-1.71,4.231,4.231,0,0,0-.018-1.823c-.194-1.15-.46-2.29-.756-3.419A2,2,0,0,0,321.051,84Z"/><path class="c" d="M302.33,73.839c-.6,1.938-.207,6.4,3.464,6.776,4.853-.029,5.112-5.42,3.478-7.954C307.934,70.586,304,69.723,302.33,73.839Z"/><path class="c" d="M341.192,73.839c.6,1.938.208,6.4-3.463,6.776-4.853-.03-5.112-5.42-3.478-7.954C335.588,70.586,339.521,69.723,341.192,73.839Z"/><path class="c" d="M355.651,88.909a23.54,23.54,0,0,1-1.832,5.8c-.2.485-.386.975-.577,1.463.217-.557-.039.082-.089.188-.1.205-.194.411-.3.616a48.763,48.763,0,0,1-4.06,6.662c-3.561,4.992-8.415,10.407-14.628,11.858-2.506.585-1.445,4.443,1.063,3.857,5.475-1.278,10.036-5.226,13.632-9.375a50.033,50.033,0,0,0,7.742-11.6,31.08,31.08,0,0,0,2.9-8.4,2.07,2.07,0,0,0-1.4-2.461,2.014,2.014,0,0,0-2.46,1.4Z"/><path class="c" d="M283.841,89.829a45.654,45.654,0,0,0,9.922,19.528c4.816,5.556,11.209,10.269,18.63,11.388a2.065,2.065,0,0,0,2.46-1.4,2.015,2.015,0,0,0-1.4-2.46c-6.821-1.028-12.442-5.252-16.865-10.359A41.466,41.466,0,0,1,287.7,88.766c-.584-2.506-4.442-1.445-3.857,1.063Z"/><path class="c" d="M287.192,69.124a8.222,8.222,0,0,0-8.906-1.342,7.817,7.817,0,0,0-4.12,5.3,20.458,20.458,0,0,0,2.994,16.151c2.052,3.054,5.262,5.785,9.185,5.276a2.065,2.065,0,0,0,2-2,2.012,2.012,0,0,0-2-2c-3.09.4-5.185-2.137-6.527-4.611a17.475,17.475,0,0,1-2.13-6.669c-.193-2.243-.2-5.042,1.174-6.959-.166.232.432-.456.494-.505a3.488,3.488,0,0,1,1.361-.616,4.027,4.027,0,0,1,3.646.807c1.916,1.709,4.754-1.11,2.829-2.828Z"/><path class="c" d="M359.16,71.952a4,4,0,0,1,3.478-.843,3.588,3.588,0,0,1,1.529.652c-.147-.114.358.352.3.3.055.056.406.51.191.209,1.37,1.916,1.366,4.717,1.174,6.959-.365,4.258-3.358,11.968-8.657,11.28a2.01,2.01,0,0,0-2,2,2.049,2.049,0,0,0,2,2c6.444.837,10.352-6.187,11.958-11.383,1.422-4.6,1.467-11.914-3.057-14.886a8.182,8.182,0,0,0-9.748.888c-1.925,1.717.912,4.538,2.829,2.828Z"/><path class="d" d="M120.906,145.766c2.492-8.981,4.779-18.046,6.748-26.791,1.567,1,3.513,2.363,5.506,3.912,17.478,6.846,32.793,11.906,40.66,23.866,4.372,6.643,6.98,15.412,8.75,26.84,2.226,17.078,6.312,54.37,7.42,66.661H53.774c-.026-3.166-.085-8.657-.166-15.333l-2.886,1.929a72.548,72.548,0,0,1-8.552,5.973c-4.582,2.422-8.445,4.434-15.661,3.324-6.151-.947-11.092-6.229-12.684-12.244a39.684,39.684,0,0,1-.977-8.478c-.47-10.965-.128-16.4-1.254-26.938l9.967-35.282L42.59,137.326c7.986-6.073,18.51-10.525,29.585-14.272,2.067-1.618,4.1-3.039,5.72-4.079,3.745,16.626,8.637,34.406,13.9,50.572,3.9,11.978,5.184,16.043,10.174,28.356h1.61c4.989-12.313,6.273-16.378,10.174-28.356C116.249,161.884,118.661,153.859,120.906,145.766Z"/><path class="d" d="M243.89,240.566c2.443-18.852,6.559-51.335,9.612-66.252,1.289-6.349,4.242-17.13,8.442-23.511,6.561-9.968,17.345-14.989,30-21.1a36.41,36.41,0,0,1,5.523-4.06c3.5,14.847,9.731,30.872,14.668,45.315,3.648,10.673,5.683,15.24,9.905,25.588h1.507c4.222-10.348,6.257-14.915,9.9-25.588,4.937-14.443,11.166-30.468,14.669-45.315a33,33,0,0,1,4.194,2.942c2.84.831,5.029,1.468,5.029,1.468a70.306,70.306,0,0,1,16.519,8.5l15.455,10.878,16.159,35.491c1.209,6.544,2.618,12.426,4.974,23.186a39.867,39.867,0,0,1,1.225,8.477c0,6.245-3.43,12.665-9.167,15.133-4.477,1.926-10.851,2-16.049.791-3.568-.832-9.462-2.7-13.743-5.612l-3.386-1.69c-.062,6.994-.076,13.518-.087,15.357Z"/><path class="a" d="M101.97,197.9C96.98,185.59,95.7,181.525,91.8,169.547c-4.833-14.842-9.353-31.045-12.958-46.466a5.29,5.29,0,0,1,1.191-4.361c1.622-1.879,3.666-4.6,5.324-6.451.705.57,15.068,11.895,16.157,12.667h2.53c1.089-.772,15.452-12.1,16.157-12.667,1.658,1.854,3.7,4.572,5.324,6.451a5.294,5.294,0,0,1,1.191,4.361c-3.606,15.421-8.125,31.624-12.958,46.466-3.9,11.978-5.185,16.043-10.174,28.356Z"/><path class="e" d="M97.633,186.8c1.152,3.117,2.491,6.543,4.337,11.1h1.61c4.593-11.335,6.046-15.68,9.291-25.644-1.573-13.491-3.655-29.535-3.655-30.008a11.16,11.16,0,0,1,.387-2.52q.144-.565.26-1.13c.416-1.874.492-2.833.975-4.818l.029-.1c-2.317-3.124-5.119-6.829-6.827-8.75h-2.53c-1.693,1.9-4.463,5.563-6.769,8.67l.216.606a24.636,24.636,0,0,1,1.184,3.853,16.051,16.051,0,0,1,.936,4.463c.013.794-2.177,16.007-4.207,30.319C94.706,178.481,95.976,182.322,97.633,186.8Z"/><path class="c" d="M91.374,197.424c-8.951-15.517-17.8-31.1-26.055-47a17.706,17.706,0,0,1-1.667-3.232c-.107-.421-.123-.311.314-.778q.63-.673,1.274-1.334c1.772-1.817,3.612-3.564,5.463-5.3a2.018,2.018,0,0,0-.405-3.141L66.84,134.66l-1.729-.987-.865-.493q-.7-.47-.284-.106l.273,1.009a8.337,8.337,0,0,1,1.066-1.645,19.794,19.794,0,0,1,1.326-1.623,45.182,45.182,0,0,1,4.038-3.935,71.116,71.116,0,0,1,8.24-6.178l-2.938-1.195a579.208,579.208,0,0,0,18.365,64.016c1.761,5.025,3.712,9.978,5.71,14.912a2.064,2.064,0,0,0,2.46,1.4,2.014,2.014,0,0,0,1.4-2.46A494.168,494.168,0,0,1,84.48,137.489q-2.493-9.482-4.656-19.046a2.015,2.015,0,0,0-2.938-1.195,66.552,66.552,0,0,0-12.5,10.1,30.381,30.381,0,0,0-2.448,2.947,7.338,7.338,0,0,0-1.688,3.429c-.119,1.879,1.442,2.6,2.842,3.4l5.187,2.961-.405-3.141c-1.738,1.63-3.467,3.271-5.139,4.97-1.5,1.526-3.582,3.187-3.17,5.578a11.463,11.463,0,0,0,1.357,3.121q.839,1.626,1.684,3.245,1.611,3.084,3.251,6.153c4.54,8.5,9.225,16.923,13.978,25.306q4.014,7.078,8.085,14.123c1.286,2.229,4.744.217,3.454-2.019Z"/><path class="c" d="M108.665,138.792c-3.744,0-7.487-.078-11.231-.079a2,2,0,0,0,0,4c3.744,0,7.487.078,11.231.079a2,2,0,0,0,0-4Z"/><path class="c" d="M108.909,133.251c-.438,1.846-.716,3.723-1.142,5.571a12.566,12.566,0,0,0-.52,3.763c.162,2.019.49,4.038.74,6.047.984,7.888,1.968,15.777,2.889,23.673a2.062,2.062,0,0,0,2,2,2.012,2.012,0,0,0,2-2c-.91-7.8-1.88-15.584-2.851-23.372-.257-2.056-.537-4.111-.758-6.171a8.588,8.588,0,0,1,.357-2.876c.426-1.849.7-3.726,1.142-5.571.594-2.5-3.262-3.571-3.857-1.064Z"/><path class="c" d="M94.9,172.675c1.114-7.847,2.246-15.692,3.331-23.543.283-2.049.65-4.112.813-6.175a11.347,11.347,0,0,0-.454-3.664,38.814,38.814,0,0,0-1.9-6.09,2.014,2.014,0,0,0-2.737-.718,2.05,2.05,0,0,0-.717,2.737A21.127,21.127,0,0,1,94.1,138.2c.263.944.586,1.868.793,2.828a6.652,6.652,0,0,1,.116,2.259c-.228,1.988-.484,3.705-.766,5.735-1.046,7.533-2.13,15.062-3.2,22.592a2.068,2.068,0,0,0,1.4,2.46,2.013,2.013,0,0,0,2.46-1.4Z"/><path class="c" d="M50.7,166.356c.225,9.625.364,19.252.506,28.878q.245,16.5.439,33,.071,6.011.127,12.023c.021,2.572,4.021,2.579,4,0-.069-8.474-.183-16.947-.293-25.421q-.222-16.982-.5-33.962c-.082-4.839-.167-9.677-.28-14.515-.061-2.57-4.061-2.579-4,0Z"/><path class="c" d="M154.3,240.254q.069-12.841.215-25.683.166-16.852.389-33.706c.067-4.836.137-9.673.236-14.509.052-2.575-3.948-2.575-4,0-.2,9.57-.3,19.142-.416,28.713q-.191,16.431-.333,32.862-.053,6.162-.091,12.323c-.014,2.574,3.986,2.577,4,0Z"/><path class="c" d="M9.594,188.487c.59,5.588.835,11.181.957,16.8.066,3.059.135,6.117.257,9.175a45.652,45.652,0,0,0,1.089,9.976,19.261,19.261,0,0,0,9.564,12.136,20.861,20.861,0,0,0,15.948.674c5.469-1.983,10.2-5.4,14.728-8.98a2.013,2.013,0,0,0,0-2.829,2.052,2.052,0,0,0-2.829,0c-6.823,5.391-15.9,11.677-25.013,8.052a15.066,15.066,0,0,1-8.541-10.116,41.617,41.617,0,0,1-.955-9.15c-.107-2.727-.173-5.455-.232-8.184-.127-5.867-.357-11.711-.973-17.55a2.059,2.059,0,0,0-2-2,2.013,2.013,0,0,0-2,2Z"/><path class="c" d="M374.876,136.826a76.474,76.474,0,0,0-17-8.7,2.021,2.021,0,0,0-2.461,1.4,2.042,2.042,0,0,0,1.4,2.461,72.325,72.325,0,0,1,16.042,8.3,2,2,0,1,0,2.019-3.453Z"/><path class="c" d="M369.946,170.706c-.022,9.426-1.212,18.789-1.669,28.2-.461,9.5-.889,18.967-.961,28.477-.033,4.4-.045,8.789-.069,13.184-.014,2.575,3.986,2.578,4,0,.1-17.969.31-35.928,1.856-53.843.46-5.332.83-10.66.843-16.014.006-2.574-3.994-2.578-4,0Z"/><path class="c" d="M272.573,170.706c.023,9.426,1.213,18.789,1.669,28.2.462,9.5.889,18.967.962,28.477.033,4.4.044,8.789.068,13.184.014,2.573,4.014,2.579,4,0-.1-17.969-.31-35.928-1.855-53.843-.46-5.332-.831-10.66-.844-16.014-.006-2.574-4.006-2.578-4,0Z"/><path class="c" d="M403.551,185.453c.779,4.2,1.691,8.37,2.616,12.539q.873,3.935,1.748,7.869a62.387,62.387,0,0,1,1.716,9.3,15.576,15.576,0,0,1-5.213,13.088c-3.941,3.247-9.886,3.448-14.72,2.832a38.463,38.463,0,0,1-15.968-5.908c-2.148-1.433-4.153,2.031-2.019,3.454a42.6,42.6,0,0,0,15.408,6.065c5.733,1.088,12.471,1.068,17.685-1.882a18.336,18.336,0,0,0,8.619-13.169,27.941,27.941,0,0,0-.544-9.726c-.647-3.236-1.4-6.453-2.119-9.675-1.173-5.27-2.367-10.537-3.351-15.847-.469-2.527-4.325-1.457-3.858,1.064Z"/><path class="c" d="M245.89,240.566c2.211-17.064,4.351-34.143,7-51.145a192.255,192.255,0,0,1,4.136-21.248,71.4,71.4,0,0,1,4.594-12.736,33.667,33.667,0,0,1,7.642-10.073c7.808-7.1,18.061-11.161,27.419-15.747,2.311-1.133.286-4.584-2.019-3.454-8.751,4.289-17.914,8.157-25.644,14.2a39.379,39.379,0,0,0-8.983,9.706,54.586,54.586,0,0,0-5.576,12.7,150.4,150.4,0,0,0-4.908,22.324c-1.429,8.832-2.668,17.695-3.87,26.561-1.305,9.63-2.545,19.269-3.794,28.908a2.01,2.01,0,0,0,2,2,2.051,2.051,0,0,0,2-2Z"/><path class="a" d="M419.4,156.97a11.125,11.125,0,0,1,.4,1.648,11.885,11.885,0,0,1-1.7,7.721,62.684,62.684,0,0,0-4.755,11.989c-.89,3.12-2.008,7.888-2.339,9.8a11.614,11.614,0,0,1-1.634,4.534c-1.1,1.627-2.7,2.172-4.312,3.113-.82.479-5.144.179-6.088.078a24.033,24.033,0,0,1-9.5-3.906c-3.58-2.547-4.565-7.567-2.068-18.074.491-1.894-.233-4.22-1.45-6.3l-2.573,1.282a65.028,65.028,0,0,1-3-5.867,5.058,5.058,0,0,1,.887-5.357,7.268,7.268,0,0,1,1.872-1.31l1.157-2.342a5.5,5.5,0,0,1-4.479-1.113,3.41,3.41,0,0,1-1.305-2.931,9.083,9.083,0,0,1,1.84-4.819,16.137,16.137,0,0,1,4.854-4.482,6.465,6.465,0,0,1,6.353-.083c.891.568,1.584,1.417,2.508,1.93l3.683.348a5.444,5.444,0,0,1,4.027-3.086,6.86,6.86,0,0,1,4.929,1.492,30.279,30.279,0,0,1,2.427,2.17c3.186,3.3,5.9,6.751,9.031,10.7A11.073,11.073,0,0,1,419.4,156.97Z"/><path class="c" d="M399.668,143.361c.492-1.335,2.365-1.8,3.586-1.574,2.132.4,3.8,2.324,5.216,3.833,1.611,1.719,3.137,3.516,4.626,5.342,1.277,1.567,3.02,3.214,3.845,5.074a9.951,9.951,0,0,1,.915,4.914c-.176,2.085-1.207,3.733-2.128,5.545a62.835,62.835,0,0,0-4.085,10.484,101.566,101.566,0,0,0-2.555,10.52c-.353,1.917-.822,4-2.54,5.152a14.9,14.9,0,0,1-1.306.745c-.228.122-.456.241-.682.365-.087.048-.812.4-.4.236.366-.143-.46.009-.1,0-.431.016-.859.047-1.291.049a19.514,19.514,0,0,1-8.58-1.715,24.37,24.37,0,0,1-2.773-1.476c-.348-.217-.7-.438-1.025-.686.038.029-.209-.176-.415-.375a5.692,5.692,0,0,1-1.394-2.2c-1.152-3.519-.461-7.555.284-11.141.514-2.478.968-4.592.1-7.062a18.15,18.15,0,0,0-3.929-6.313c-1.756-1.89-4.58.944-2.828,2.828a12.167,12.167,0,0,1,3.252,5.8,7.4,7.4,0,0,1-.316,3.019c-.286,1.307-.534,2.623-.725,3.948-.513,3.569-.809,7.431.634,10.833,1.429,3.368,4.587,5.2,7.828,6.592a23.942,23.942,0,0,0,10.43,1.937c4.443-.135,8.129-3.63,9.264-7.792.5-1.856.778-3.791,1.218-5.666.492-2.095,1.016-4.184,1.615-6.251a51.689,51.689,0,0,1,4.4-10.976,14.031,14.031,0,0,0,.456-13.583,19.672,19.672,0,0,0-2.341-3.131c-.991-1.245-1.987-2.486-3-3.709a53.237,53.237,0,0,0-5.9-6.332c-2.2-1.905-4.787-3.268-7.8-2.778a7.22,7.22,0,0,0-5.423,4.482c-.892,2.419,2.972,3.463,3.857,1.064Z"/><path class="c" d="M407.581,152.538c-1.984-2.221-4.029-4.39-6.091-6.537a17.821,17.821,0,0,0-2.172-2.067,5.861,5.861,0,0,0-6.714-.117,6.779,6.779,0,0,0-2.805,6.865,2.018,2.018,0,0,0,2.46,1.4,2.043,2.043,0,0,0,1.4-2.46c-.045-.236-.046-.246,0-.031-.008-.129-.009-.258,0-.387q.031-.361-.011-.059c.023-.132.051-.264.085-.395a2.444,2.444,0,0,1,.487-1.033c-.1.116-.075.083.085-.1q.146-.162.306-.309c.346-.324-.106.026.3-.213a1.537,1.537,0,0,1,1.016-.287c.4-.027-.071-.078.32.034a1.565,1.565,0,0,1,.567.216c.215.135.538.411.244.14.036.033.075.065.109.1.33.354.688.685,1.025,1.033,2.234,2.3,4.437,4.646,6.575,7.039a2,2,0,1,0,2.829-2.828Z"/><path class="c" d="M399.42,155.13a49.687,49.687,0,0,0-5.879-4.972,9.618,9.618,0,0,0-2.967-1.74,5.691,5.691,0,0,0-6.827,6.955,10.605,10.605,0,0,0,2.176,3.484,18,18,0,0,0,1.347,1.5c1.365,1.372,2.786,2.689,4.2,4.011a2,2,0,1,0,2.829-2.828c-1.065-1-2.13-1.992-3.177-3.006-.527-.51-1.052-1.022-1.557-1.554-.411-.432-.9-1.04-1.173-1.4a10.806,10.806,0,0,1-.723-1.111c-.161-.3.13.21-.033-.066-.041-.069-.031-.159-.067-.229.134.262.006.292.014.079,0-.135.012-.276.008-.41-.007-.289-.087.306,0,.021.025-.083.035-.173.056-.257.027-.105.271-.716.087-.344.084-.169.207-.332.28-.5.082-.191-.045.073-.082.1.008-.007.337-.327.168-.18s.113-.075.16-.1c.076-.048.154-.09.231-.135.318-.186.1-.05.007-.017.109-.041.221-.078.333-.109.083-.023.173-.033.254-.06.274-.091-.307-.013-.023,0,.08,0,.172,0,.253-.008.438-.025-.164-.089.041-.013a1.318,1.318,0,0,0,.312.082c.2.016-.059-.015-.109-.051.174.123.365.229.542.351.418.29.839.577,1.254.871.23.163.459.326.686.493.115.085.23.17.344.257.038.028.262.2.106.081.488.387.951.8,1.418,1.215.9.795,1.824,1.578,2.686,2.421a2,2,0,0,0,2.828-2.828Z"/><path class="c" d="M387.484,154.982a6.17,6.17,0,0,0-4.082-.795,6.787,6.787,0,0,0-3.181,1.7A6.663,6.663,0,0,0,378,161.551a13.025,13.025,0,0,0,1.61,4.485,30.3,30.3,0,0,0,2.038,3.829,2,2,0,0,0,3.454-2.019,26.1,26.1,0,0,1-1.7-3.135q-.42-.848-.826-1.7c-.1-.2-.192-.405-.287-.608l-.141-.306c-.058-.125-.015-.23.029.063-.023-.151-.1-.323-.14-.473-.026-.108-.048-.218-.067-.328.028.224.034.26.02.11,0-.2-.024-.4-.018-.6,0-.062.055-.632-.011-.16a4.681,4.681,0,0,1,.1-.509c.022-.087.263-.759.076-.331a4.319,4.319,0,0,1,.232-.448c.061-.1.356-.412.072-.133.136-.133.262-.271.405-.4.053-.046.524-.428.237-.21.15-.114.306-.223.465-.324s.455-.24.108-.1c.088-.035.832-.191.47-.156a2.625,2.625,0,0,1,.581,0c-.4-.052.214.085.241.093.222.081.259.092.111.035q.206.1.4.209a2,2,0,1,0,2.018-3.454Z"/><path class="c" d="M395.066,140.754c-.894-.529-1.658-1.419-2.614-1.993a7.475,7.475,0,0,0-3.677-1.006,10.466,10.466,0,0,0-6.883,2.755,16.222,16.222,0,0,0-4.389,5.483c-1.058,2.415-1.582,5.265.156,7.493a7.4,7.4,0,0,0,7.158,2.422,2.015,2.015,0,0,0,1.4-2.461,2.047,2.047,0,0,0-2.46-1.4,3.326,3.326,0,0,1-2.279-.451c-.147-.085-.288-.179-.426-.278.439.316-.115-.135-.2-.226a1.235,1.235,0,0,1-.354-.714,6,6,0,0,1,.569-2.61,10.256,10.256,0,0,1,1.84-2.626c1.39-1.578,3.043-3.1,5.172-3.374a3.861,3.861,0,0,1,2.252.38c.932.518,1.733,1.472,2.719,2.056,2.22,1.314,4.235-2.142,2.019-3.454Z"/><path class="a" d="M27.73,145.618c.921-.511,1.612-1.357,2.5-1.923a6.439,6.439,0,0,1,6.329.083,16.073,16.073,0,0,1,4.837,4.466,9.061,9.061,0,0,1,1.833,4.8,3.4,3.4,0,0,1-1.3,2.92,5.472,5.472,0,0,1-4.462,1.109l1.153,2.334a7.231,7.231,0,0,1,1.865,1.305,5.04,5.04,0,0,1,.884,5.337,64.829,64.829,0,0,1-2.993,5.847l-2.649-1.131c-1.161,2.037-1.837,4.29-1.359,6.133,2.487,10.468,1.506,15.471-2.061,18.008a23.954,23.954,0,0,1-9.467,3.892c-.94.1-5.249.4-6.065-.078-1.605-.938-3.2-1.48-4.3-3.1a11.591,11.591,0,0,1-1.628-4.518c-.33-1.908-1.444-6.658-2.33-9.767A62.446,62.446,0,0,0,3.78,169.389,11.846,11.846,0,0,1,2.086,161.7a13.722,13.722,0,0,1,1.635-4.5c3.122-3.936,5.824-7.378,9-10.662a30.436,30.436,0,0,1,2.418-2.163,6.834,6.834,0,0,1,4.912-1.486,5.421,5.421,0,0,1,4.011,3.075Z"/><path class="c" d="M25.989,145.433c-1.771-4.8-7.823-5.744-11.7-2.906-4.2,3.072-7.438,7.54-10.646,11.576a18.59,18.59,0,0,0-1.983,2.635,15.9,15.9,0,0,0-1.153,2.948,12.867,12.867,0,0,0-.067,6.907c.571,2.194,1.848,4.05,2.79,6.084.882,1.908,1.628,3.882,2.315,5.868A94.907,94.907,0,0,1,8.7,190.464c.44,2.139.8,4.313,2.055,6.165a11.54,11.54,0,0,0,5.6,4.071,13.361,13.361,0,0,0,4.683.229,19.992,19.992,0,0,0,4.633-.692c3.611-1.053,7.849-2.836,10.09-6.018,2.149-3.052,2.2-7.15,1.814-10.715q-.222-2.025-.6-4.031a23.9,23.9,0,0,1-.75-3.88c-.042-2.442,1.736-4.928,3.32-6.633,1.751-1.883-1.072-4.718-2.829-2.828-2.851,3.068-5.192,7.236-4.21,11.531.809,3.544,1.664,7.455,1.13,11.074a7.631,7.631,0,0,1-1.047,3.052,6.149,6.149,0,0,1-2.222,2.017,19.492,19.492,0,0,1-9.06,3.109c-.748.043-1.5.072-2.248.069a5.977,5.977,0,0,1-1.5-.1c.563.168.041,0-.1-.087-.223-.13-.455-.246-.683-.368-.441-.236-.889-.465-1.314-.731a4.8,4.8,0,0,1-1.892-2.27,27.321,27.321,0,0,1-1.22-5.065q-.648-2.961-1.426-5.891A75.559,75.559,0,0,0,7.235,171.9c-1.439-3.339-4-6.559-3.074-10.413a12.2,12.2,0,0,1,2.746-5.1c1.714-2.152,3.447-4.291,5.284-6.34,1.509-1.684,3.29-4,5.459-4.848,1.407-.552,3.843-.432,4.482,1.3.883,2.395,4.75,1.359,3.857-1.064Z"/><path class="c" d="M17.078,158.462c2.131-2.385,4.326-4.719,6.552-7.014.336-.346.692-.677,1.021-1.029.033-.035.072-.067.108-.1-.294.272.026,0,.242-.138a1.521,1.521,0,0,1,.563-.214l.212-.045q-.265.039.105.011a3.942,3.942,0,0,1,.421.02q-.277-.023.089.046c.227.084.266.09.119.018a4.166,4.166,0,0,1,.38.2c.263.136.065,0,.295.212q.159.145.3.308.24.274.084.1a2.438,2.438,0,0,1,.484,1.028q.051.195.084.393-.041-.3-.011.057c0,.129,0,.257,0,.386.041-.217.04-.207,0,.028a2.055,2.055,0,0,0,1.4,2.46,2.018,2.018,0,0,0,2.46-1.4,6.717,6.717,0,0,0-1.966-6.191,5.986,5.986,0,0,0-6.826-.982,9.969,9.969,0,0,0-2.525,2.145q-1.571,1.626-3.111,3.282c-1.111,1.186-2.219,2.376-3.3,3.588a2.047,2.047,0,0,0,0,2.829,2.019,2.019,0,0,0,2.828,0Z"/><path class="c" d="M25.209,161.044c.722-.707,1.486-1.37,2.246-2.036.425-.372.844-.752,1.274-1.119.186-.16.376-.315.569-.468-.071.056-.224.167.1-.08.114-.086.228-.171.343-.255.414-.305.835-.6,1.257-.893a7.626,7.626,0,0,0,1.147-.778c.123-.128-.044.017-.118.038.1-.029.208-.058.308-.09.152-.048.289.029-.047,0,.081.007.167,0,.249,0,.065,0,.419.034.156,0-.247-.033.036.012.072.022.11.03.224.065.335.093.341.085-.078-.078.091.034s.365.2.531.323c-.359-.273.267.282.041.049-.185-.192.027.047.065.115s.08.142.12.214c.178.321.032.07,0-.009.049.138.094.276.133.417.03.112.046.23.079.341.065.219-.007-.068-.009-.106.008.219.014.428,0,.648,0-.055.1-.328.007-.168-.027.047-.14.379-.057.191s-.068.117-.071.121c-.088.15-.173.3-.268.445a9.423,9.423,0,0,1-.764,1.021c-.171.216-.339.433-.523.638-.442.492-.917.956-1.389,1.419-1.186,1.163-2.4,2.3-3.614,3.432a2.017,2.017,0,0,0,0,2.828,2.042,2.042,0,0,0,2.829,0c1.25-1.169,2.5-2.337,3.722-3.538a17.707,17.707,0,0,0,3.554-4.4,5.649,5.649,0,0,0-5.3-8.12,6.226,6.226,0,0,0-3.309,1.375,50.923,50.923,0,0,0-6.6,5.476,2,2,0,0,0,2.828,2.828Z"/><path class="c" d="M36.293,161.522c.132-.075.265-.144.4-.209-.149.058-.112.047.109-.034.082-.023.634-.14.238-.092a2.873,2.873,0,0,1,.579-.005c-.372-.032.278.1.365.12q.252.087-.094-.04c.1.054.2.113.3.176.159.1.314.209.463.323-.288-.22.114.1.171.152a5.532,5.532,0,0,1,.467.452c-.229-.249-.016-.015.07.131a4.183,4.183,0,0,1,.231.446c-.185-.416.028.151.054.245a4.947,4.947,0,0,1,.124.59c-.051-.359-.015,0-.011.157s-.009.343-.01.515q-.035.352.012-.027c-.018.11-.04.219-.066.328-.037.156-.117.315-.139.471.034-.233.1-.216.029-.064-.04.087-.08.174-.121.261q-.151.325-.3.649-.4.852-.824,1.7a26.039,26.039,0,0,1-1.69,3.123,2.013,2.013,0,0,0,.717,2.737,2.051,2.051,0,0,0,2.737-.718,30.078,30.078,0,0,0,2.03-3.815,12.962,12.962,0,0,0,1.605-4.472,6.646,6.646,0,0,0-2.217-5.649,6.769,6.769,0,0,0-3.172-1.7,6.16,6.16,0,0,0-4.074.794,2.018,2.018,0,0,0-.717,2.736,2.043,2.043,0,0,0,2.736.718Z"/><path class="c" d="M28.739,147.345c.985-.583,1.783-1.533,2.71-2.049a3.9,3.9,0,0,1,2.238-.377c2.118.268,3.763,1.785,5.149,3.359a10.438,10.438,0,0,1,1.778,2.5,6.067,6.067,0,0,1,.621,2.714c-.012.072-.219.572-.107.349-.008.017-.363.508-.173.284-.079.092-.718.624-.268.3-.137.1-.278.192-.424.277a2.471,2.471,0,0,1-1.053.4,3.349,3.349,0,0,1-1.212.046,2.062,2.062,0,0,0-2.461,1.4,2.016,2.016,0,0,0,1.4,2.46,7.635,7.635,0,0,0,6.56-1.759c2-1.864,2.024-4.6,1.176-7.038a15.6,15.6,0,0,0-4.153-5.96,11.307,11.307,0,0,0-6.666-3.3,7.692,7.692,0,0,0-4.1.734c-1.155.549-2.017,1.613-3.033,2.215-2.214,1.31-.2,4.769,2.018,3.454Z"/><path class="c" d="M325.478,197.076c3.369-8.252,6.771-16.469,9.67-24.9,3.37-9.8,6.98-19.525,10.169-29.39,1.771-5.479,3.4-11.007,4.735-16.611l-2.938,1.195a37.342,37.342,0,0,1,7.236,5.706c2.1,2.059,4.393,4.417,5.565,7.164l-.273-1.01.015.322.273-1.01c.249-.449-.046-.065-.33.111q-.353.217-.7.443c-.609.39-1.211.79-1.811,1.193-1.127.754-2.247,1.517-3.388,2.25a2.031,2.031,0,0,0,0,3.454c1.587,1.166,3.273,2.21,4.811,3.441.42.337,1.761,1.217,1.869,1.692-.092-.4-.272.206-.362.371q-.4.747-.809,1.492-2.906,5.325-5.96,10.567c-4.246,7.317-8.645,14.545-13.1,21.735q-3.675,5.93-7.4,11.829c-1.375,2.185,2.085,4.195,3.454,2.019,4.82-7.66,9.615-15.338,14.291-23.087q3.555-5.891,7-11.846c2.137-3.707,4.373-7.413,6.278-11.247,1.3-2.61-.12-4.423-2.113-6.091-1.881-1.574-3.966-2.879-5.94-4.329v3.454c1.326-.852,2.624-1.745,3.936-2.617a18.9,18.9,0,0,0,3.3-2.2c2.01-2.115-.919-5.351-2.253-7.042a42.211,42.211,0,0,0-11.567-10.221,2.019,2.019,0,0,0-2.938,1.2,296.113,296.113,0,0,1-9.167,29.642c-3.218,9.155-6.253,18.4-9.786,27.438-1.811,4.633-3.741,9.218-5.621,13.823a2.013,2.013,0,0,0,1.4,2.46,2.049,2.049,0,0,0,2.46-1.4Z"/><path class="c" d="M323.972,196.013c-3.369-8.252-6.771-16.469-9.67-24.9-3.37-9.8-6.979-19.526-10.169-29.39-1.771-5.48-3.4-11.007-4.735-16.611a2.019,2.019,0,0,0-2.938-1.2,42.18,42.18,0,0,0-11.567,10.221c-1.3,1.644-4.1,4.713-2.409,6.839.818,1.03,2.367,1.677,3.455,2.4,1.313.872,2.61,1.765,3.936,2.617v-3.454c-1.754,1.288-3.585,2.466-5.3,3.811-1.577,1.238-3.466,2.7-3.3,4.917a7.306,7.306,0,0,0,1.148,2.806q.817,1.509,1.648,3.008,1.546,2.8,3.135,5.568c4.53,7.921,9.26,15.727,14.061,23.487q4.034,6.519,8.124,13c1.368,2.174,4.831.169,3.454-2.019-8.866-14.09-17.705-28.226-25.738-42.814q-.773-1.4-1.531-2.809a2.314,2.314,0,0,1-.3-.556c.009.077-.217.45.085.044a7.272,7.272,0,0,1,1.085-1.018c1.695-1.476,3.64-2.646,5.448-3.974a2.031,2.031,0,0,0,0-3.454c-1.141-.733-2.261-1.5-3.388-2.25-.542-.364-1.084-.726-1.633-1.079-.235-.152-.47-.3-.707-.45q-.257-.162-.517-.318-.354-.249.014.1l.274,1.01.014-.322-.273,1.01c1.172-2.747,3.465-5.106,5.565-7.164a37.342,37.342,0,0,1,7.236-5.706l-2.938-1.195a296.032,296.032,0,0,0,9.167,29.642c3.218,9.155,6.253,18.4,9.786,27.439,1.811,4.632,3.741,9.217,5.621,13.822a2.065,2.065,0,0,0,2.46,1.4,2.012,2.012,0,0,0,1.4-2.46Z"/><path class="c" d="M83.939,110.854c-1.338,1.513-2.578,3.107-3.849,4.675-1.228,1.515-2.583,2.888-3.108,4.825-.729,2.687.443,4.493,1.809,6.614,1.607,2.5,3.327,4.922,5.167,7.254a27.155,27.155,0,0,0,6.1,6.09,2.048,2.048,0,0,0,2.736-.718c3.324-4.441,6.455-9.079,10.13-13.244a2.038,2.038,0,0,0-.405-3.141c-.122-.088-.242-.179-.362-.27s-.792-.609-.351-.268q-.927-.717-1.85-1.439-2.683-2.1-5.359-4.2c-2.612-2.055-5.242-4.091-7.83-6.177a2.06,2.06,0,0,0-2.828,0,2.015,2.015,0,0,0,0,2.829c2.656,2.141,5.356,4.231,8.038,6.34,2.825,2.22,5.6,4.544,8.523,6.64l-.405-3.142c-3.9,4.42-7.227,9.342-10.755,14.054l2.736-.717a24.478,24.478,0,0,1-5-5.095c-1.59-1.985-3.048-4.081-4.441-6.209-.505-.77-1-1.546-1.476-2.335-.433-.721-.515-.7-.409-1.444.214-1.49,1.525-2.624,2.423-3.736,1.182-1.465,2.344-2.946,3.591-4.356C88.467,111.761,85.648,108.921,83.939,110.854Z"/><path class="c" d="M117.629,199.443c9.513-16.489,19.05-33.03,27.619-50.036a4.642,4.642,0,0,0,.559-3.828,9.191,9.191,0,0,0-2.347-3c-1.87-1.937-3.822-3.791-5.785-5.632l-.405,3.141,4.972-2.837c1.454-.831,3.171-1.565,3.057-3.528a7.092,7.092,0,0,0-1.6-3.3,29.847,29.847,0,0,0-2.539-3.072,66.552,66.552,0,0,0-12.5-10.1,2.015,2.015,0,0,0-2.938,1.195,579.38,579.38,0,0,1-18.365,64.017c-1.761,5.024-3.712,9.977-5.71,14.912a2.014,2.014,0,0,0,1.4,2.46,2.049,2.049,0,0,0,2.46-1.4,494.344,494.344,0,0,0,19.419-59.883q2.493-9.482,4.656-19.045l-2.938,1.195a71.116,71.116,0,0,1,8.24,6.178,46.073,46.073,0,0,1,3.923,3.807,20.644,20.644,0,0,1,1.441,1.751,8.337,8.337,0,0,1,1.066,1.645l.273-1.009q.417-.363-.284.106l-.865.493-1.729.987-3.458,1.974a2.018,2.018,0,0,0-.405,3.141c1.625,1.525,3.244,3.059,4.814,4.641.7.707,1.428,1.407,2.08,2.161.569.659.27.14.156.61a8.569,8.569,0,0,1-.828,1.612q-3.025,5.868-6.16,11.676c-4.31,8.006-8.741,15.947-13.231,23.853q-3.727,6.561-7.5,13.1c-1.289,2.234,2.166,4.251,3.453,2.019Z"/><path class="c" d="M118.782,113.683c1.248,1.41,2.41,2.891,3.592,4.356.9,1.111,2.209,2.247,2.423,3.736.1.711.019.731-.41,1.444-.474.789-.971,1.565-1.475,2.335-1.393,2.128-2.851,4.224-4.442,6.209a24.429,24.429,0,0,1-5,5.095l2.737.717c-3.528-4.712-6.856-9.634-10.756-14.054l-.4,3.142c2.921-2.095,5.7-4.42,8.524-6.64,2.682-2.109,5.381-4.2,8.038-6.34a2.014,2.014,0,0,0,0-2.829,2.049,2.049,0,0,0-2.829,0c-2.587,2.086-5.217,4.122-7.83,6.177q-2.634,2.07-5.275,4.136-.965.753-1.934,1.5c.427-.329-.228.174-.35.268s-.24.182-.362.27a2.038,2.038,0,0,0-.405,3.141c3.674,4.165,6.8,8.8,10.13,13.244a2.038,2.038,0,0,0,2.736.718,26.88,26.88,0,0,0,6-5.966c1.877-2.369,3.628-4.837,5.264-7.378,1.334-2.073,2.476-3.806,1.852-6.435-.466-1.961-1.793-3.333-3.023-4.846-1.316-1.619-2.595-3.269-3.977-4.833C119.9,108.922,117.082,111.76,118.782,113.683Z"/><path class="c" d="M191.99,240.254c-1.5-16.568-3.417-33.108-5.344-49.631-1.055-9.039-1.864-18.195-3.973-27.063-2.294-9.647-6.236-18.98-13.988-25.488-9.318-7.821-21.323-11.809-32.5-16.143a2.015,2.015,0,0,0-2.46,1.4,2.046,2.046,0,0,0,1.4,2.46c9.793,3.8,20.1,7.311,28.688,13.519a33.21,33.21,0,0,1,9.148,9.833,51.3,51.3,0,0,1,5.266,13.127c2.311,8.637,3.156,17.56,4.2,26.415q1.617,13.752,3.1,27.518c.869,8.013,1.745,16.028,2.471,24.056a2.054,2.054,0,0,0,2,2,2.015,2.015,0,0,0,2-2Z"/><path class="c" d="M43.6,139.053c8.659-6.536,18.915-10.611,29.112-14.072,2.425-.823,1.384-4.687-1.063-3.857-10.5,3.563-21.15,7.744-30.068,14.475a2.064,2.064,0,0,0-.717,2.737,2.014,2.014,0,0,0,2.736.717Z"/><path class="c" d="M96.207,93.7a15.407,15.407,0,0,0,7.416,1.718,12.089,12.089,0,0,0,7.5-2.219,2.005,2.005,0,0,0,0-2.829,2.064,2.064,0,0,0-2.829,0c.611-.476.155-.124,0-.024s-.3.183-.456.264c-.081.043-.164.08-.244.122-.232.119-.171-.046.1-.034a2.655,2.655,0,0,0-.629.229,11.413,11.413,0,0,1-1.76.4c.3-.046-.006,0-.145.011-.173.017-.346.032-.519.043-.416.027-.834.037-1.251.035q-.561,0-1.12-.04c-.171-.012-.342-.026-.513-.043-.038,0-.657-.1-.225-.024a14.66,14.66,0,0,1-1.644-.365c-.231-.069-.455-.151-.682-.229-.5-.172.315.16-.141-.054-.282-.133-.559-.272-.835-.417A2,2,0,1,0,96.207,93.7Z"/><path class="c" d="M102.568,76.278A34.651,34.651,0,0,1,103.382,80l-.071-.532a2.266,2.266,0,0,1,.014.514l.071-.532a1.245,1.245,0,0,1-.056.232l.2-.478a.933.933,0,0,1-.081.149l.312-.405a.808.808,0,0,1-.121.12l.4-.313a2.306,2.306,0,0,1-.3.156l.478-.2a2.2,2.2,0,0,1-.5.145l.531-.072a1.963,1.963,0,0,1-.466,0l.531.071c-.176-.025-.348-.067-.525-.091a1.522,1.522,0,0,0-.8-.036,1.484,1.484,0,0,0-.744.238,2,2,0,0,0-.717,2.736,1.913,1.913,0,0,0,1.195.919c.409.055.805.159,1.221.177a3.909,3.909,0,0,0,1.809-.432,2.628,2.628,0,0,0,1.453-1.732,4.315,4.315,0,0,0-.018-1.855c-.2-1.2-.48-2.39-.789-3.567a2.063,2.063,0,0,0-.919-1.2,2,2,0,0,0-2.938,2.259Z"/><path class="c" d="M82.877,65.7c-.622,2.022-.216,6.673,3.614,7.069,5.063-.03,5.332-5.653,3.628-8.3C88.723,62.31,84.621,61.41,82.877,65.7Z"/><path class="c" d="M123.574,65.7c.622,2.021.217,6.672-3.614,7.068-5.062-.031-5.332-5.654-3.628-8.3C117.728,62.31,121.83,61.41,123.574,65.7Z"/><path class="c" d="M67.068,60.478a8.384,8.384,0,0,0-9.076-1.369,7.969,7.969,0,0,0-4.2,5.4c-1.491,5.479-.071,11.868,3.067,16.536,2.1,3.12,5.373,5.909,9.382,5.389a2.066,2.066,0,0,0,2-2,2.011,2.011,0,0,0-2-2c-5.471.71-8.561-7.233-8.938-11.63-.2-2.306-.2-5.2,1.212-7.168-.2.279.191-.213.2-.226.076-.073.265-.267.322-.312a3.639,3.639,0,0,1,1.41-.638,4.191,4.191,0,0,1,3.793.842c1.915,1.709,4.754-1.11,2.828-2.828Z"/><path class="c" d="M142.211,63.306a4.164,4.164,0,0,1,3.622-.879,3.715,3.715,0,0,1,1.581.675,4.334,4.334,0,0,0,.322.312c.053.051.409.511.2.226,1.415,1.967,1.41,4.863,1.212,7.168-.377,4.4-3.466,12.34-8.938,11.63a2.01,2.01,0,0,0-2,2,2.05,2.05,0,0,0,2,2c6.59.855,10.582-6.332,12.223-11.644,1.452-4.7,1.507-12.182-3.114-15.218a8.342,8.342,0,0,0-9.94.9c-1.925,1.717.912,4.538,2.828,2.828Z"/><path class="c" d="M138.516,81.068a43.559,43.559,0,0,1-2.558,7.757c.212-.512-.143.308-.225.479-.186.393-.384.782-.587,1.168-.467.887-.967,1.757-1.489,2.612a46.979,46.979,0,0,1-9.976,11.886,18.693,18.693,0,0,1-7.546,3.946c-2.506.585-1.445,4.442,1.063,3.857,5.73-1.335,10.493-5.5,14.236-9.859a51.053,51.053,0,0,0,7.956-12.029c.1-.211.184-.423.274-.636.021-.05.3-.724.206-.5.095-.222.587-1.375.8-1.945a37.684,37.684,0,0,0,1.7-5.673c.52-2.512-3.334-3.586-3.857-1.063Z"/><path class="c" d="M63.971,82a47.281,47.281,0,0,0,10.294,20.414c4.86,5.625,11.1,10.073,18.579,11.19a2.066,2.066,0,0,0,2.46-1.4,2.016,2.016,0,0,0-1.4-2.461c-6.886-1.028-12.341-4.983-16.814-10.16a43.087,43.087,0,0,1-9.265-18.649C67.257,78.425,63.4,79.487,63.971,82Z"/><path class="c" d="M129.189,7.643A48.769,48.769,0,0,0,83.631,4,47.439,47.439,0,0,0,58.14,32.162a50.368,50.368,0,0,0-.673,28.322c.637,2.492,4.5,1.436,3.857-1.064-3.547-13.9-.95-28.995,8.475-40.049A44.679,44.679,0,0,1,82.9,8.777a44.7,44.7,0,0,1,44.273,2.32c2.166,1.405,4.173-2.057,2.018-3.454Z"/><path class="c" d="M148.8,60.484a52.737,52.737,0,0,0,.68-23.257,45.337,45.337,0,0,0-7.663-17.654,46.974,46.974,0,0,0-6.374-7.131c-1.9-1.728-4.738,1.092-2.829,2.829a43.369,43.369,0,0,1,13.93,31.822,48.643,48.643,0,0,1-1.6,12.327c-.611,2.5,3.245,3.567,3.857,1.064Z"/><path class="c" d="M116.152,40.483a30.2,30.2,0,0,1,9.688,7.061A33.185,33.185,0,0,1,132.909,57.7a2.064,2.064,0,0,0,2.46,1.4,2.013,2.013,0,0,0,1.4-2.46,38.009,38.009,0,0,0-7.875-11.691,33.377,33.377,0,0,0-10.72-7.919,2.066,2.066,0,0,0-2.737.717,2.015,2.015,0,0,0,.718,2.737Z"/><path class="c" d="M73.074,58.264A83.287,83.287,0,0,1,88.17,44.59c.577-.386,1.164-.758,1.766-1.1a1.662,1.662,0,0,0,.39-.22c.212-.275,0,.082-.169-.046-1.043-.785-.549.032-.494.562a13.345,13.345,0,0,0,.1,2.56A3.516,3.516,0,0,0,91.436,48.4c1.7.9,3.211-.067,4.678-.912,1.377-.793,2.746-1.6,4.12-2.4a96.721,96.721,0,0,1,10.471-5.523,2.013,2.013,0,0,0,.718-2.737,2.052,2.052,0,0,0-2.736-.717,88.553,88.553,0,0,0-9.3,4.847c-1.486.855-2.962,1.725-4.444,2.587a10.328,10.328,0,0,0-1.89,1.085c-.048.048-.25.091-.269.163a3.559,3.559,0,0,0,.764.286c.128-.061.029.059.119-.244a2.55,2.55,0,0,0,.018-.688c-.04-1.832-.582-4.082-2.533-4.74-1.6-.54-3,.447-4.306,1.276a64.6,64.6,0,0,0-8.275,6.47,109.476,109.476,0,0,0-8.323,8.281c-1.719,1.909,1.1,4.746,2.829,2.829Z"/><path class="c" d="M313.759,149.367c1.382,1.028,2.719,2.115,4.1,3.146.716.534,1.442,1.054,2.19,1.541a5.9,5.9,0,0,0,2.748,1.3,5.621,5.621,0,0,0,2.631-1.229c.75-.482,1.477-1,2.192-1.532,1.421-1.055,2.794-2.174,4.215-3.23a2.063,2.063,0,0,0,.717-2.737,2.014,2.014,0,0,0-2.736-.717c-2.634,1.959-5.123,4.158-8.029,5.718h2.019c-2.906-1.56-5.395-3.759-8.029-5.718a2.014,2.014,0,0,0-2.736.717,2.048,2.048,0,0,0,.718,2.737Z"/><path class="a" d="M306.509,118.05c-1.55,1.734-3.461,4.275-4.978,6.031a4.806,4.806,0,0,0-1.041,4.3c.582,1.163,7.023,11.491,11.361,14.27,1.37-1.826,7.047-9.706,9.763-12.761C320.6,129.171,307.168,118.583,306.509,118.05Z"/><path class="a" d="M339.084,118.05c1.55,1.734,3.461,4.275,4.978,6.031a4.806,4.806,0,0,1,1.041,4.3c-.582,1.163-7.023,11.491-11.361,14.27-1.37-1.826-7.047-9.706-9.763-12.761C325,129.171,338.426,118.583,339.084,118.05Z"/><path class="c" d="M305.1,116.636c-1.314,1.485-2.527,3.054-3.778,4.591-1.153,1.416-2.365,2.7-2.806,4.527-.6,2.469.5,4.159,1.755,6.111q2.262,3.513,4.847,6.8a25.528,25.528,0,0,0,5.728,5.712,2.048,2.048,0,0,0,2.737-.718c3.1-4.143,6.022-8.469,9.45-12.355a2.038,2.038,0,0,0-.405-3.141c-.306-.22-.6-.454-.9-.684.437.336-.03-.024-.121-.095l-.472-.366-.92-.718q-2.488-1.942-4.97-3.9c-2.441-1.919-4.9-3.822-7.316-5.77a2.059,2.059,0,0,0-2.828,0,2.013,2.013,0,0,0,0,2.828c5.1,4.108,10.191,8.338,15.509,12.155l-.4-3.141c-3.653,4.141-6.771,8.75-10.076,13.166l2.736-.718a22.512,22.512,0,0,1-4.533-4.6c-1.513-1.877-2.9-3.863-4.219-5.879-.466-.711-.925-1.428-1.365-2.156a5.723,5.723,0,0,1-.384-.653,1.6,1.6,0,0,1-.116-.21c.074.288.089-.414.1-.512.2-1.374,1.476-2.454,2.3-3.482,1.076-1.335,2.137-2.682,3.273-3.967C309.623,117.542,306.8,114.7,305.1,116.636Z"/><path class="c" d="M337.67,119.464c1.136,1.285,2.2,2.633,3.273,3.967.814,1.009,2.03,2.056,2.282,3.386.141.745.069.736-.375,1.471s-.9,1.445-1.365,2.156c-1.293,1.973-2.646,3.918-4.123,5.759a22.9,22.9,0,0,1-4.629,4.723l2.736.718c-3.305-4.416-6.423-9.025-10.075-13.166l-.405,3.141c5.318-3.817,10.412-8.047,15.509-12.155a2.011,2.011,0,0,0,0-2.828,2.047,2.047,0,0,0-2.828,0c-2.418,1.948-4.874,3.851-7.316,5.77q-2.482,1.951-4.97,3.9-.459.36-.92.718l-.408.317c-.084.065-.641.5-.185.144-.3.23-.595.464-.9.684a2.039,2.039,0,0,0-.405,3.141c3.428,3.886,6.349,8.212,9.45,12.355a2.04,2.04,0,0,0,2.737.718,25.528,25.528,0,0,0,5.728-5.712q2.587-3.281,4.847-6.8c1.258-1.953,2.351-3.641,1.755-6.111-.439-1.821-1.657-3.117-2.806-4.527-1.251-1.537-2.464-3.106-3.778-4.591C338.79,114.7,335.97,117.541,337.67,119.464Z"/><path class="c" d="M365.534,68.292a50.21,50.21,0,0,0,1.156-19.2,44.879,44.879,0,0,0-4.969-15.407,37.9,37.9,0,0,0-8.57-10.64,53.6,53.6,0,0,0-12.342-8.271A47.775,47.775,0,0,0,306.133,13.4a45.779,45.779,0,0,0-22.374,17.291c-7.537,10.982-9.245,24.845-5.95,37.605.643,2.491,4.5,1.435,3.857-1.063-2.739-10.606-1.766-21.975,3.7-31.578a41.923,41.923,0,0,1,18.559-17.076,43.99,43.99,0,0,1,31.863-1.516,42.878,42.878,0,0,1,12.294,7.024,37.208,37.208,0,0,1,8.456,8.767,39.9,39.9,0,0,1,5.905,14.884,45.41,45.41,0,0,1-.767,19.495c-.618,2.5,3.239,3.565,3.857,1.063Z"/><path class="c" d="M343.749,18.476c2.632-2.953,6.091-5.118,10.141-5.191a12.35,12.35,0,0,1,8.63,3.26,10.2,10.2,0,0,1,2.521,3.572,33.789,33.789,0,0,1,1.341,6.3,37.631,37.631,0,0,0,4.758,13.164,15.3,15.3,0,0,0,4.213,4.5,36.81,36.81,0,0,0,5.561,2.86l-.718-2.737a22.916,22.916,0,0,1-5.634,6.132,12.309,12.309,0,0,1-8.135,2.141c-2.569-.185-2.557,3.816,0,4A15.826,15.826,0,0,0,376.581,53.8a28.132,28.132,0,0,0,7.069-7.567,2.008,2.008,0,0,0-.717-2.736,43.655,43.655,0,0,1-5.126-2.57,11.056,11.056,0,0,1-3.491-3.816c-2.555-4.312-3.589-9.054-4.476-13.925a19.342,19.342,0,0,0-1.744-5.917,14.184,14.184,0,0,0-3.462-4.178,16.557,16.557,0,0,0-10.6-3.807,17.947,17.947,0,0,0-13.117,6.366c-1.708,1.916,1.111,4.755,2.828,2.828Z"/><path class="c" d="M301.214,51.964c2.117,3.754,4.632,8.044,6.88,11.339a2.64,2.64,0,0,0,3.247.916c.542-.239,1.129-.5,1.685-.754a2.648,2.648,0,0,0,1.3-3.552c-1.518-3.18-4.14-8.51-5.737-11.611a2.747,2.747,0,0,0-3.575-1.244c-.833.377-1.764.8-2.609,1.2A2.649,2.649,0,0,0,301.214,51.964Z"/><path class="c" d="M333.17,41.589c-4.548,5.06-10.539,8.626-16.387,11.976a123.192,123.192,0,0,1-15.39,7.72c-3.316,1.324-6.695,2.484-10.08,3.617-2.428.814-1.387,4.678,1.064,3.858,5.35-1.793,10.616-3.736,15.764-6.049,3.261-1.466,6.36-3.255,9.471-5.015,3.328-1.882,6.629-3.826,9.779-6A48.043,48.043,0,0,0,336,44.417c1.717-1.91-1.1-4.748-2.828-2.828Z"/><path class="c" d="M332.655,43.535c1.952,6.351,4.5,12.424,8.788,17.565,3.94,4.719,9.047,9.353,15.075,11.089,2.479.713,3.537-3.145,1.064-3.857-5.36-1.544-9.82-5.886-13.311-10.06-3.83-4.582-6.023-10.152-7.759-15.8-.754-2.453-4.616-1.407-3.857,1.064Z"/></svg>