<?xml version="1.0" encoding="utf-8"?>
<!-- Uploaded to: SVG Repo, www.svgrepo.com, Generator: SVG Repo Mixer Tools -->
<svg width="800px" height="800px" viewBox="-55.11 0 319.606 319.606" xmlns="http://www.w3.org/2000/svg"><defs><style>.a{fill:#ffffff;}.b{fill:#211715;}.c{fill:#d8e8f5;}.d{fill:#f8b8b4;}</style></defs><path class="a" d="M162.671,89.414a8.429,8.429,0,0,1,3.71-.72,7.679,7.679,0,0,1,5.51,2.21,6.736,6.736,0,0,1,1.11,1.47c2.25,3.9,2.15,11.09.64,15.54-1.07,3.15-2.82,7.96-7.04,11.42a8.78,8.78,0,0,1-6.75,1.95l-.649-.109a51.483,51.483,0,0,1-2.322,6.3c-1.677,4.552-10.774,20.259-22.387,26.916a75.969,75.969,0,0,0,1.073,9.362c.655,3.738.45,7.079,5.646,8.955.306.111,12.018,5.679,14.958,7.054-10.84,5.728-29.95,10.643-44.643,10.6-15.018.049-34.652-5.088-45.349-10.98,5.1-2.332,14.19-6.576,14.445-6.669,5.2-1.876,4.991-5.217,5.646-8.955a71.562,71.562,0,0,0,1.035-8.366c-5.632-2.614-10.675-6.861-15.473-12.6a60.393,60.393,0,0,1-11.459-21.619,8.613,8.613,0,0,1-7.3-1.832c-4.23-3.46-5.98-8.27-7.05-11.42-1.51-4.45-1.6-11.64.65-15.54a7.251,7.251,0,0,1,.86-1.2,7.548,7.548,0,0,1,5.76-2.48,8.423,8.423,0,0,1,3.62.68s-8.994-50.242,54.006-50.242C169.584,39.132,162.671,89.414,162.671,89.414Z"/><path class="b" d="M84.889,155.644a70.011,70.011,0,0,1-.854,7.011c-.25,1.466-.389,2.972-.777,4.411a3.88,3.88,0,0,1-1.809,2.6,19.518,19.518,0,0,1-2.514,1.18c-4.11,1.867-8.19,3.8-12.29,5.685q-1.623.747-3.251,1.485c-.373.169-.748.334-1.122.5-.611.274.494-.175-.068.026a2.462,2.462,0,0,0-1.676,2.953,2.422,2.422,0,0,0,2.952,1.676c1.621-.58,3.187-1.395,4.75-2.112q3.814-1.749,7.62-3.52,2.753-1.276,5.507-2.55c.025-.011.445-.186.442-.2,0,.016-1.237.507-.149.081.315-.124.635-.259.942-.4a10.028,10.028,0,0,0,1.417-.756,8.971,8.971,0,0,0,3.5-4.277,24.265,24.265,0,0,0,1.069-5.057c.489-2.9.906-5.809,1.106-8.748a2.4,2.4,0,1,0-4.8,0Z"/><path class="b" d="M132.1,154.4a95.815,95.815,0,0,0,1.618,12.905,9.778,9.778,0,0,0,6.466,7.572c1.181.47-.654-.329.173.065.279.133.56.26.84.391q1.326.621,2.65,1.249,3.534,1.669,7.067,3.344c1.749.827,3.484,1.7,5.268,2.448a2.414,2.414,0,0,0,2.953-1.676,2.462,2.462,0,0,0-1.677-2.952c.446.187.651.287.178.062-.29-.138-.581-.272-.872-.408q-1.245-.585-2.488-1.174-3.312-1.566-6.624-3.136c-1.622-.767-3.238-1.552-4.872-2.292a15.591,15.591,0,0,1-2.531-1.218,3.853,3.853,0,0,1-1.67-2.515,48.248,48.248,0,0,1-.851-4.876,71.172,71.172,0,0,1-.828-7.789c-.158-3.074-4.959-3.092-4.8,0Z"/><path class="a" d="M123.029,189.548c12.966-1.733,26.767-6.022,34.765-10.7,17.722,6.851,35.416,11.68,43.307,28.163,5.5,11.51,6.17,25.31,5.72,41.61-.56,20.11-3.17,49-18.5,58.5a22.274,22.274,0,0,1-11,3.14c.01,3.04.02,5.5.022,6.94l-174.936,0,.49-5.4c2.6-24.11,5.37-44.78,7.97-68.89,1.79-16.59,4.56-35.02,17.69-45.31a76.455,76.455,0,0,1,17.01-10.42c6.78-2.76,13.08-5.49,19.69-8.33,10.45,6.11,30.81,11.56,46.27,11.51A85.57,85.57,0,0,0,123.029,189.548Z"/><path class="c" d="M109.517,56.315c-14.43-.085-30.889,7.111-38.681,20.144-5.376,8.993-7.023,24.964-4.344,38.384,5.124,25.668,25.259,38.6,45.136,38.027,18.677-.536,35.945-13.7,40.778-35.222,3.173-14.128,3.529-30.23-4-41.188C140.786,65.373,125.479,56.409,109.517,56.315Z"/><path class="a" d="M131.434,109.426c-8.889,0-12.764-6.035-12.764-11.264,0-5.756,4.1-10.68,12.986-10.68,10,0,13.6,4.805,13.6,10.944C145.253,104.5,140.712,109.426,131.434,109.426Z"/><path class="a" d="M87.239,109.426c-8.888,0-12.763-6.035-12.763-11.264,0-5.756,4.1-10.68,12.986-10.68,10,0,13.6,4.805,13.6,10.944C101.059,104.5,96.517,109.426,87.239,109.426Z"/><path class="a" d="M106.6,141.409c-8.733-1.167-11.584-5.539-11.75-9.539-.211-5.06,4.277-9.8,15.079-9.8,11.914,0,14.51,5.764,14.587,7.911C124.767,136.905,118.511,143,106.6,141.409Z"/><path class="b" d="M179.741,317.2c0-2.314-.013-4.627-.02-6.94a2.4,2.4,0,0,0-4.8,0c.007,2.313.019,4.626.02,6.94a2.4,2.4,0,0,0,4.8,0Z"/><path class="b" d="M48.114,317.2c0-10.5.1-20.993-.248-31.484A92.025,92.025,0,0,0,46.692,272.2c-1.1-6.051-1.668-12.135-2.293-18.356-1.009-10.032-1.831-20.083-2.541-30.14a2.459,2.459,0,0,0-2.4-2.4,2.42,2.42,0,0,0-2.4,2.4c1.122,15.9,2.2,31.932,4.657,47.689.162,1.036.334,2.072.544,3.1.051.254.215,1.3.129.627q.09.717.161,1.436c.23,2.342.345,4.695.44,7.045.245,6.051.306,12.109.334,18.163.024,5.148-.008,10.295-.009,15.443,0,3.088,4.8,3.093,4.8,0Z"/><path class="b" d="M4.807,317.2c1.943-21.408,4.9-42.723,7.329-64.079,1.192-10.5,1.931-21.153,4.694-31.388a52.043,52.043,0,0,1,5.377-13.224A35.375,35.375,0,0,1,31.416,198.4a74.358,74.358,0,0,1,15.241-9.092c6.579-2.85,13.224-5.557,19.812-8.388H64.046a77.909,77.909,0,0,0,16.287,6.755,121.968,121.968,0,0,0,20.3,4.352c13.263,1.693,26.618.028,39.443-3.576a81.736,81.736,0,0,0,18.931-7.531c2.671-1.549.257-5.7-2.423-4.144-6.665,3.865-14.216,6.237-21.662,8.067a96.472,96.472,0,0,1-25.23,3.1,103.406,103.406,0,0,1-25.25-4.063,99.13,99.13,0,0,1-11.562-3.94c-1.567-.655-3.109-1.376-4.612-2.165a13.218,13.218,0,0,0-2.375-1.237c-1.3-.358-2.873.682-4.042,1.184-16.242,6.986-35.389,13.112-44.5,29.607-3.925,7.1-5.945,15.1-7.248,23.059-1.517,9.257-2.286,18.64-3.365,27.954-2.174,18.751-4.79,37.481-6.5,56.283L.007,317.2a2.418,2.418,0,0,0,2.4,2.4,2.45,2.45,0,0,0,2.4-2.4Z"/><path class="b" d="M100.5,133.54a20.49,20.49,0,0,0,9.874,2.282c3.525-.022,7.1-.71,9.927-2.911a2.413,2.413,0,0,0,0-3.394,2.46,2.46,0,0,0-3.394,0c.717-.559.119-.1-.065.015q-.3.192-.617.357c-.156.082-.893.384-.271.15-.283.106-.563.216-.851.309a14.215,14.215,0,0,1-5.049.674c-.506,0-1.011-.02-1.515-.054-.231-.016-.463-.034-.693-.058,0,0-.8-.106-.386-.043a16.4,16.4,0,0,1-2.223-.493c-.312-.093-.615-.2-.922-.31-.1-.034-.2-.087-.3-.116.6.172.2.09.035.012-.381-.18-.757-.367-1.13-.564a2.452,2.452,0,0,0-3.283.861,2.425,2.425,0,0,0,.861,3.283Z"/><path class="b" d="M109.238,110.166a46.682,46.682,0,0,1,1.1,5.038l-.086-.638a2.994,2.994,0,0,1,.019.695l.086-.638a1.608,1.608,0,0,1-.077.313l.242-.573a1.263,1.263,0,0,1-.11.2l.375-.486a1.092,1.092,0,0,1-.164.162l.485-.375a3.1,3.1,0,0,1-.4.211l.574-.242a2.884,2.884,0,0,1-.673.2l.638-.085a2.718,2.718,0,0,1-.631,0l.638.085c-.238-.033-.472-.091-.71-.123a2.655,2.655,0,0,0-1.849.242,2.4,2.4,0,0,0-.861,3.284,2.3,2.3,0,0,0,1.434,1.1c.526.071,1.036.2,1.57.228a4.977,4.977,0,0,0,2.293-.542,3.269,3.269,0,0,0,1.824-2.16,5.486,5.486,0,0,0-.024-2.348c-.274-1.623-.649-3.231-1.067-4.823a2.4,2.4,0,0,0-4.628,1.276Z"/><path class="b" d="M82.319,95.948c-.842,2.734-.293,9.023,4.886,9.558,6.846-.041,7.21-7.644,4.905-11.219C90.224,91.359,84.676,90.142,82.319,95.948Z"/><path class="b" d="M137.349,95.948c.841,2.734.293,9.023-4.886,9.558-6.846-.041-7.211-7.645-4.906-11.22C129.443,91.359,134.991,90.142,137.349,95.948Z"/><path class="b" d="M59.183,118.969c-3.8.52-6.836-3.315-8.489-6.2a25.674,25.674,0,0,1-3.133-8.718,18.626,18.626,0,0,1,.771-9.659c1.331-3.154,4.764-3.984,7.941-2.7a2.416,2.416,0,0,0,2.952-1.676,2.46,2.46,0,0,0-1.676-2.953,10.951,10.951,0,0,0-11.021,1.724c-2.7,2.335-3.58,6.1-3.9,9.5A28.59,28.59,0,0,0,48.2,117.668c3.027,3.972,7.109,6.634,12.256,5.93a2.415,2.415,0,0,0,1.676-2.952,2.465,2.465,0,0,0-2.952-1.677Z"/><path class="b" d="M159.213,123.6c8.529,1.167,13.747-6.719,16.293-13.759a27.168,27.168,0,0,0,1.625-9.9c-.082-3.494-.728-7.337-3-10.116-2.828-3.458-8.053-4.408-12.1-2.722a2.481,2.481,0,0,0-1.677,2.953,2.416,2.416,0,0,0,2.953,1.676c3.141-1.31,6.669-.57,8.03,2.66a18.6,18.6,0,0,1,.734,9.833,26.23,26.23,0,0,1-3.2,8.7c-1.652,2.84-4.649,6.56-8.389,6.048a2.484,2.484,0,0,0-2.953,1.677,2.417,2.417,0,0,0,1.677,2.952Z"/><path class="b" d="M157.847,116.805a61.028,61.028,0,0,1-3.457,10.486c-.145.357.07-.168.082-.195-.051.114-.1.228-.151.341-.091.2-.18.394-.273.59q-.386.809-.806,1.6c-.616,1.168-1.274,2.314-1.96,3.442a63.539,63.539,0,0,1-13.641,16.248,25.4,25.4,0,0,1-10.271,5.358c-3.009.693-1.735,5.322,1.276,4.628,7.735-1.781,14.162-7.465,19.193-13.344a68.711,68.711,0,0,0,10.627-16.1q.261-.581.5-1.171c.06-.147.345-.817.072-.188.42-.968.834-1.937,1.2-2.927a50.224,50.224,0,0,0,2.232-7.493,2.461,2.461,0,0,0-1.677-2.953,2.423,2.423,0,0,0-2.952,1.677Z"/><path class="b" d="M57.046,117.9a63.478,63.478,0,0,0,9.011,21.145c4.593,6.88,10.625,13.323,17.931,17.347a35.312,35.312,0,0,0,11.888,4.029,2.479,2.479,0,0,0,2.953-1.676,2.418,2.418,0,0,0-1.677-2.952c-15.1-2.225-26.385-15.305-32.129-28.709a60.522,60.522,0,0,1-3.348-10.46c-.682-3.012-5.311-1.737-4.629,1.276Z"/><path class="d" d="M122.675,44.549c-2.158-1.123-4.31-2.142-6.427-3.052-14.259,4.939-26.768,9.784-35.509,14.818C75.89,59.107,69.3,64.648,64.406,74.2A97.287,97.287,0,0,0,60.1,85.125a8.154,8.154,0,0,1-7.108,5.639c-.711.055-1.445.123-2.249.218-3.194.375-4.365.673-5.94-2.193-2.58-4.7-2.159-10.078-.293-14.945,1.057-2.755,2.716-5.243,3.844-7.97,4.126-9.977.758-22.015,5.532-31.7,3.367-6.828,10.2-11.221,17.035-14.572A110.758,110.758,0,0,1,107.075,9.062c2.394-2.58,4.385-4.5,5.648-5.166,3.393-1.778,7.881-1.69,11.947-1.189,7.872.971,15.364,3.211,22.785,5.436a18.555,18.555,0,0,1,4.869,1.97c4.4,2.91,6.192,8.372,7.558,15.675,2.494,10.867,15.329,30.7,17.825,41.382,1.346,5.759.144,11.785-1.322,17.515-.867,3.385-2.039,6.359-3.053,6.3-2.781-.155-4.74-.323-7.133-.365a6.143,6.143,0,0,1-5.888-4.821C156.3,67.939,139.3,53.193,122.675,44.549Z"/><path class="b" d="M105.728,6.821A114.421,114.421,0,0,0,81.556,12.53c-7.362,2.634-14.95,5.838-21.2,10.62a30.231,30.231,0,0,0-7.6,8.1,27.623,27.623,0,0,0-3.579,10.533c-1.088,7.511-.157,15.457-2.838,22.68-1.406,3.786-3.8,7.069-4.894,11a19.925,19.925,0,0,0,.064,11.762c1.083,3.109,2.891,6.279,6.54,6.385a39.45,39.45,0,0,0,4.939-.452,10.99,10.99,0,0,0,4.927-1.573,10.855,10.855,0,0,0,3.544-3.663,35.391,35.391,0,0,0,2.157-5.623,60.192,60.192,0,0,1,3.717-8.489A41.183,41.183,0,0,1,80,59.6c5.136-3.449,11.035-5.94,16.735-8.284,7.636-3.14,15.426-5.9,23.238-8.566q3.142-1.073,6.292-2.124c2.915-.975,1.665-5.612-1.276-4.628-14.231,4.761-28.757,9.488-42.115,16.416A45.8,45.8,0,0,0,69.786,62.2,53.89,53.89,0,0,0,59.615,79.373c-.7,1.792-1.21,3.678-1.95,5.447a5.836,5.836,0,0,1-2.315,2.718,9.342,9.342,0,0,1-4.136.99c-.7.076-1.405.177-2.11.24-.311.027-.622.03-.932.048a2.393,2.393,0,0,1-.359-.011c.238.024.191.043-.013-.018-.339-.1.054.161-.2-.1.3.317-.244-.3-.21-.252a9.068,9.068,0,0,1-1.029-1.87,13.049,13.049,0,0,1-.976-5.181c.022-3.707,1.392-7.089,3.088-10.321a35.294,35.294,0,0,0,3.884-10.705,97.86,97.86,0,0,0,.947-11.071,47.439,47.439,0,0,1,1.369-10.442,20.414,20.414,0,0,1,4.805-8.522C64.34,25.133,71.134,21.89,77.6,19.183a110.05,110.05,0,0,1,22.735-6.72c1.791-.327,3.589-.612,5.395-.842a2.477,2.477,0,0,0,2.4-2.4,2.414,2.414,0,0,0-2.4-2.4Z"/><path class="b" d="M116.639,44.276c13.335,6.062,26.332,15.1,34.677,27.34a45.788,45.788,0,0,1,5.024,9.361c1.277,3.342,1.484,7.518,4.384,9.955,3.214,2.7,7.719,2.165,11.658,2.4a4.137,4.137,0,0,0,4.314-2.406,25.858,25.858,0,0,0,2.118-6.056,46.435,46.435,0,0,0,1.838-13.8,31.183,31.183,0,0,0-2.3-9.68c-2.518-6.455-5.778-12.6-8.862-18.8-2.72-5.465-5.794-11.112-7.215-17.094-1.6-6.723-3.026-14.91-10.048-18.173a46.466,46.466,0,0,0-6.367-2.163c-2.236-.666-4.477-1.32-6.73-1.928A105.254,105.254,0,0,0,125.142.367c-4.308-.554-8.865-.689-12.913,1.115-2.864,1.276-5.114,4-7.19,6.253-1.551,1.687-3.063,3.409-4.571,5.133-2.025,2.317,1.357,5.726,3.394,3.4,2.587-2.959,5.152-5.987,8.022-8.679a7.391,7.391,0,0,1,2.484-1.83,13.7,13.7,0,0,1,5.361-.956A54.939,54.939,0,0,1,132.4,6.5c4.258.959,8.452,2.173,12.633,3.421,3.288.981,6.462,1.777,8.515,4.665,1.875,2.639,2.741,5.873,3.439,8.99a55.836,55.836,0,0,0,2.3,8.2c1.158,2.98,2.491,5.892,3.874,8.773,2.882,6,6.023,11.879,8.784,17.938a61.459,61.459,0,0,1,2.97,7.553,24.923,24.923,0,0,1,.663,10.885,64.585,64.585,0,0,1-1.392,6.668,19.961,19.961,0,0,1-1.779,5.167c-.062.107-.186.3-.205.275l1.131-.449-.483-.027c-.224-.036-.467-.028-.693-.042-1.045-.063-2.089-.133-3.134-.19-1.486-.08-3.22.166-4.562-.593s-1.69-2.032-2.041-3.439a40.1,40.1,0,0,0-1.515-4.762,50.624,50.624,0,0,0-4.829-9.419c-7.852-12.026-19.845-21.278-32.5-27.8q-2.226-1.148-4.509-2.182a2.473,2.473,0,0,0-3.284.861,2.42,2.42,0,0,0,.861,3.284Z"/><path class="a" d="M150.864,210.4c4.406-1.582,8.819-3.143,13.222-4.732-2.473-6.515-5.905-16.959-8.5-23.973a21.922,21.922,0,0,0-2.182-4.4l-.6-.955c8.34-8.977,16.91-18.827,18.583-31.888.416-3.248,2.52-26.287.55-30.372-.354-.9-1.276-1.812-1.637-2.956a11.9,11.9,0,0,0-1.393-3.133,4.96,4.96,0,0,0-3.682-2.337,4.481,4.481,0,0,0-3.55,1.689,7.535,7.535,0,0,0-1.542,3.718l-.171,1.582a5.324,5.324,0,0,0-4.3,2.324,14.873,14.873,0,0,0-2.076,5.354c-1.309,5.351-3.243,14.124-5.09,20.1a11.008,11.008,0,0,1-1.752,3.455,111.655,111.655,0,0,1-15.3,15.879,21.84,21.84,0,0,0-3.151,3.123c-3.065,4.053-2.556,9.906-.337,14.478,5.554,12.073,4.983,25.894,8.718,38.3C141.384,213.837,146.119,212.107,150.864,210.4Z"/><path class="b" d="M97.273,20.441c-4.149,1.092-7.316,4.053-9.8,7.429-2.6,3.54-4.346,7.624-7.021,11.116a2.415,2.415,0,0,0,.861,3.284,2.462,2.462,0,0,0,3.284-.861c2.509-3.276,4.206-7.063,6.545-10.45,1.825-2.64,4.33-5.08,7.4-5.889a2.4,2.4,0,0,0-1.276-4.629Z"/><path class="b" d="M162.437,146.619c1.067-5.048,2.085-10.11,2.789-15.223.339-2.464.62-4.934.824-7.413a43.505,43.505,0,0,0,.375-7.418,7.3,7.3,0,0,0-4.638-5.982,7.046,7.046,0,0,0-7.1,1.864c-1.934,1.848-2.743,4.514-3.364,7.034-.531,2.15-1.03,4.308-1.541,6.462a135.86,135.86,0,0,1-3.734,14.249c-.861,2.414-2.915,4.443-4.574,6.334-1.831,2.086-3.756,4.088-5.744,6.025-1.94,1.891-3.943,3.716-5.978,5.5a16.994,16.994,0,0,0-5.059,6.459c-1.915,4.821-.648,9.927,1.38,14.456,4.986,11.137,4.707,23.8,7.765,35.462.782,2.985,5.413,1.719,4.628-1.276-2.552-9.738-2.875-19.92-5.677-29.6a54.4,54.4,0,0,0-2.756-7.413,15.522,15.522,0,0,1-1.477-5.841,9.567,9.567,0,0,1,1.381-5.594c1.282-2,3.493-3.487,5.235-5.061A114.542,114.542,0,0,0,145.9,148.727a24.867,24.867,0,0,0,4.548-6.652,54.144,54.144,0,0,0,1.86-6.317c1.152-4.39,2.162-8.816,3.219-13.23.477-2,.792-4.291,1.979-6.012.806-1.168,2.4-2.125,3.518-.814a3.378,3.378,0,0,1,.585,2.72q-.1,1.99-.235,3.978c-.173,2.421-.4,4.839-.713,7.247-.679,5.275-1.751,10.5-2.85,15.7-.637,3.013,3.989,4.3,4.628,1.276Z"/><path class="b" d="M162.449,111.7c.228-1.32.663-3.128,2.145-3.569,1.381-.41,2.392,1.129,2.875,2.195.38.836.577,1.735.985,2.562.364.735.867,1.391,1.274,2.1.459.8-.059-.407.037.074.023.116.076.234.109.349a10.011,10.011,0,0,1,.214,1c.043.24.076.6.023.126.021.187.043.373.061.56.047.48.081.961.108,1.443.06,1.078.082,2.158.087,3.237.01,2.458-.071,4.917-.188,7.371q-.318,6.657-.973,13.3a38.7,38.7,0,0,1-4.838,15.232c-3.844,6.848-9.213,12.631-14.538,18.339-2.105,2.257,1.282,5.659,3.395,3.394,5.286-5.666,10.611-11.437,14.6-18.123a44.5,44.5,0,0,0,6.149-18.527q.731-7.218,1.044-14.475c.118-2.707.195-5.421.125-8.131a24.4,24.4,0,0,0-.64-6.016c-.428-1.493-1.51-2.624-2.02-4.059-.827-2.332-1.936-4.531-4.116-5.866a6.438,6.438,0,0,0-6.793.074,8.876,8.876,0,0,0-3.754,6.138,2.47,2.47,0,0,0,1.676,2.952,2.421,2.421,0,0,0,2.953-1.676Z"/><path class="b" d="M165.885,203.656c-1.72-4.659-3.317-9.362-4.948-14.053-.8-2.3-1.6-4.592-2.428-6.879a29.657,29.657,0,0,0-3.033-6.642c-1.722-2.544-5.882-.145-4.144,2.423a25.75,25.75,0,0,1,2.674,5.841c.83,2.3,1.636,4.613,2.439,6.924,1.584,4.561,3.14,9.132,4.811,13.662a2.466,2.466,0,0,0,2.953,1.676,2.42,2.42,0,0,0,1.676-2.952Z"/><path class="b" d="M186.905,247.006c-5.067-14.647-9.692-29.447-14.31-44.24a2.423,2.423,0,0,0-2.952-1.677c-13.8,5.115-27.794,9.735-41.4,15.37a2.472,2.472,0,0,0-1.677,2.953c3.969,15.948,8.419,31.81,13.723,47.368a229.658,229.658,0,0,0,9.8,24.784c2.617,5.489,5.663,11.72,10.427,15.7,8.987,7.5,23.352,7.113,32.167-.385,6.712-5.71,10.206-14.585,12.37-22.9,2.486-9.548,3.46-19.485,3.942-29.317.553-11.289.794-22.8-1.163-33.977-1.821-10.394-6.094-20.332-14.3-27.247-7.958-6.7-17.845-10.425-27.472-14.027-2.541-.951-5.084-1.9-7.615-2.872a2.419,2.419,0,0,0-2.953,1.677,2.455,2.455,0,0,0,1.677,2.952c9.4,3.625,19.2,6.669,27.823,11.994a39,39,0,0,1,10.217,8.846,38.2,38.2,0,0,1,6.355,12.9c3.215,10.8,3.171,22.324,2.869,33.483a178.6,178.6,0,0,1-2.455,27.241c-1.523,8.342-3.845,17.132-9.04,24.008a19.951,19.951,0,0,1-9.5,7.142,22.321,22.321,0,0,1-15.974-.77,15.827,15.827,0,0,1-4.775-3.281c-.414-.422-.808-.863-1.188-1.316-.182-.217-.359-.438-.536-.66-.243-.3.339.457-.042-.055-.12-.16-.241-.32-.359-.482a61.162,61.162,0,0,1-4.9-8.188,180.749,180.749,0,0,1-9.221-22.162c-5.546-15.6-10.1-31.566-14.2-47.6q-.526-2.062-1.041-4.128l-1.676,2.952c13.606-5.635,27.6-10.255,41.4-15.37l-2.953-1.676c4.618,14.793,9.243,29.593,14.31,44.24,1,2.9,5.643,1.654,4.629-1.276Z"/></svg>