<?xml version="1.0" encoding="iso-8859-1"?>
<!-- Uploaded to: SVG Repo, www.svgrepo.com, Generator: SVG Repo Mixer Tools -->
<svg height="800px" width="800px" version="1.1" id="Layer_1" xmlns="http://www.w3.org/2000/svg" xmlns:xlink="http://www.w3.org/1999/xlink" 
	 viewBox="0 0 512 512" xml:space="preserve">
<path style="fill:#FFA800;" d="M312.947,367.476c0-14.607-11.84-26.447-26.447-26.447h-3.473l44.88-123.954l74.8,45.948
	l-89.76,108.994V367.476z"/>
<path style="fill:#ECF0F1;" d="M78.103,442.543h182.244c16.067,0,29.092,13.025,29.092,29.092v0.588
	c0,16.067-13.025,29.092-29.092,29.092H78.103c-16.067,0-29.092-13.025-29.092-29.092v-0.588
	C49.011,455.568,62.036,442.543,78.103,442.543z"/>
<polygon style="fill:#FFCD02;" points="312.947,399.448 312.947,442.543 13.748,442.543 13.748,341.029 77.862,341.029 
	77.862,367.743 163.348,367.743 163.348,341.029 221.766,341.029 221.766,399.448 "/>
<path style="fill:#6D6E71;" d="M312.947,367.476v31.972h-91.181v-58.419H286.5C301.107,341.029,312.947,352.869,312.947,367.476z"/>
<circle style="fill:#ECF0F1;" cx="471.538" cy="37.4" r="26.714"/>
<g>
	<path style="fill:#231F20;" d="M408.05,490.629h-2.671c-5.902,0-10.686,4.784-10.686,10.686c0,5.902,4.784,10.686,10.686,10.686
		h2.671c5.902,0,10.686-4.784,10.686-10.686C418.735,495.413,413.951,490.629,408.05,490.629z"/>
	<path style="fill:#231F20;" d="M493.535,339.248h-4.274V70.326c11.705-6.327,19.677-18.712,19.677-32.926
		c0-20.622-16.778-37.4-37.4-37.4c-18.97,0-34.677,14.202-37.073,32.53L49.82,212.742c-3.754,1.759-6.152,5.53-6.152,9.676v107.925
		h-29.92c-5.902,0-10.686,4.784-10.686,10.686v101.514c0,5.902,4.784,10.686,10.686,10.686h29.109
		c-2.888,5.508-4.532,11.767-4.532,18.406v0.588c0,21.933,17.844,39.777,39.777,39.777h283.999c5.902,0,10.686-4.784,10.686-10.686
		c0-5.902-4.784-10.686-10.686-10.686h-66.509c2.888-5.508,4.532-11.767,4.532-18.406v-0.588c0-6.639-1.643-12.898-4.532-18.406
		h17.355c5.902,0,10.686-4.784,10.686-10.686v-66.693L410.803,270c0.003-0.003,0.005-0.006,0.009-0.01l0.144-0.175
		c0.022-0.028,0.041-0.058,0.063-0.085c0.193-0.239,0.376-0.488,0.549-0.746c0.037-0.056,0.076-0.11,0.112-0.167
		c0.375-0.581,0.699-1.204,0.961-1.869c0.036-0.092,0.067-0.185,0.1-0.278c0.05-0.14,0.107-0.277,0.152-0.42l36.224-114.294
		c1.782-5.626-1.333-11.632-6.957-13.415c-5.627-1.783-11.632,1.332-13.415,6.957l-32.094,101.262l-52.634-32.333L461.465,73.411
		c2.076,0.581,4.221,0.994,6.424,1.209v275.314c0,5.902,4.784,10.686,10.686,10.686h14.96c5.902,0,10.686-4.784,10.686-10.686
		C504.221,344.032,499.437,339.248,493.535,339.248z M471.538,21.371c8.838,0,16.029,7.19,16.029,16.029s-7.19,16.029-16.029,16.029
		s-16.029-7.19-16.029-16.029S462.699,21.371,471.538,21.371z M319.696,210.236l0.001,0.01c-0.782,0.94-1.412,2.014-1.838,3.191
		l-42.328,116.906h-80.494l67.967-51.718c4.696-3.573,5.607-10.277,2.032-14.975c-3.574-4.697-10.279-5.608-14.975-2.032
		l-85.436,65.011L72.077,225.913L438.226,54.369c1.382,2.701,3.082,5.212,5.051,7.485L319.696,210.236z M302.262,388.762h-69.81
		v-37.047H286.5c8.691,0,15.761,7.071,15.761,15.761V388.762z M65.039,249.839l87.623,95.354v11.864H88.548v-16.029
		c0-5.902-4.784-10.686-10.686-10.686H65.039C65.039,330.342,65.039,249.839,65.039,249.839z M278.753,471.635v0.588
		c0,10.149-8.257,18.406-18.406,18.406H78.103c-10.149,0-18.406-8.257-18.406-18.406v-0.588c0-10.149,8.257-18.406,18.406-18.406
		h182.244C270.496,453.229,278.753,461.486,278.753,471.635z M302.262,431.857H24.434v-80.143h42.743v16.029
		c0,5.902,4.784,10.686,10.686,10.686h85.485c5.902,0,10.686-4.784,10.686-10.686v-16.029h37.047v47.733
		c0,5.902,4.784,10.686,10.686,10.686h80.495V431.857z M318.434,348.544l-0.002,0.011c-4.627-7.779-12.009-13.734-20.795-16.503
		l0.004-0.001l35.847-99.006l53.167,32.659L318.434,348.544z"/>
</g>
</svg>