<?xml version="1.0" encoding="utf-8"?>
<!-- Uploaded to: SVG Repo, www.svgrepo.com, Generator: SVG Repo Mixer Tools -->
<svg fill="#000000" height="800px" width="800px" version="1.1" id="Layer_1" xmlns="http://www.w3.org/2000/svg" xmlns:xlink="http://www.w3.org/1999/xlink" 
	 viewBox="0 0 128 128" xml:space="preserve">
<path d="M88.7,40.6c5.1,0,9.3,4,9.7,9l1.2,18.5l12.3,7.4l0,31.3h-5.5l0,10.2c0,4.4-3.6,8-8,8c-4.4,0-8-3.5-8-8v-10.2H37.4l0,10.2
	c0,4.4-3.6,8-8,8c-4.4,0-7.9-3.5-7.9-8v-10.2H16l0-31.3l12.3-7.4l1.2-18.5c0.4-5,4.6-9,9.7-9H88.7z M29.3,93c3.7,0,6.6-3,6.6-6.7
	c0-3.7-3-6.7-6.6-6.7c-3.7,0-6.7,3-6.7,6.7C22.6,90,25.6,93,29.3,93 M85.9,96.4V79.5c0-1.7-1.4-3-3-3H45c-1.6,0-3,1.4-3,3v16.8H85.9
	z M105.4,86.3c0-3.7-3-6.7-6.7-6.7c-3.7,0-6.7,3-6.7,6.7c0,3.7,3,6.7,6.7,6.7C102.4,93,105.4,90,105.4,86.3 M95,67.9l-1.2-18
	c-0.2-2.6-2.4-4.6-5-4.6H39.3c-2.7,0-4.8,2-5.1,4.6l-1.2,18H95z"/>
<path d="M103.2,5c4.9,0,8.8,3.9,8.8,8.8v56.7l-8.1-5L102.8,49c-0.7-7.1-6.8-12.7-14.1-12.7H39.3c-7.4,0-13.4,5.6-14.1,12.7
	l-1.1,16.6l-8.1,5l0-56.7C16,8.9,20,5,24.8,5H103.2z"/>
</svg>