<?xml version="1.0" encoding="iso-8859-1"?>
<!-- Uploaded to: SVG Repo, www.svgrepo.com, Generator: SVG Repo Mixer Tools -->
<svg fill="#000000" height="800px" width="800px" version="1.1" id="Capa_1" xmlns="http://www.w3.org/2000/svg" xmlns:xlink="http://www.w3.org/1999/xlink" 
	 viewBox="0 0 490 490" xml:space="preserve">
<path d="M490,259.399l-81.57-134.425l-83.48-0.049l-0.089,153.871l97.035,0.059l0.01-20.414l-76.622-0.04l0.07-113.043l51.582,0.03
	L469.587,265.1l-0.06,101.092l-32.23-0.015c-4.845-28.047-29.336-49.467-58.764-49.485c-29.4,0-53.892,21.392-58.767,49.417
	l-24.386-0.012l0.138-241.181l-35.376-0.02l0.04-70.75L0.19,53.986L0,386.336l52.634,0.034c6.241,37.13,40.616,50.38,58.745,49.485
	h0.04c29.394,0,53.881-21.387,58.754-49.413l149.579,0.081c4.842,28.051,29.334,49.475,58.756,49.493h0.01
	c29.402,0,53.894-21.395,58.768-49.422l52.645,0.033L490,259.399z M111.418,415.441h-0.03c-16.638,0-39.218-13.191-39.218-39.262
	c0-21.63,17.613-39.223,39.268-39.223c21.634,0.02,39.228,17.632,39.218,39.263C150.646,397.848,133.044,415.441,111.418,415.441z
	 M274.963,366.082l-104.779-0.054c-4.844-28.047-29.329-49.468-58.775-49.485c-29.394,0-53.882,21.388-58.755,49.415l-32.231-0.016
	l0.17-291.523l219.164,0.12l-0.04,70.751l35.375,0.02L274.963,366.082z M378.517,415.601h-0.015
	c-21.639-0.02-39.232-17.633-39.222-39.263c0.009-21.64,17.627-39.233,39.267-39.233c21.639,0.02,39.233,17.633,39.223,39.263
	C417.759,398.008,400.146,415.601,378.517,415.601z"/>
</svg>