<?xml version="1.0" encoding="iso-8859-1"?>
<!-- Uploaded to: SVG Repo, www.svgrepo.com, Generator: SVG Repo Mixer Tools -->
<svg height="800px" width="800px" version="1.1" id="Layer_1" xmlns="http://www.w3.org/2000/svg" xmlns:xlink="http://www.w3.org/1999/xlink" 
	 viewBox="0 0 512 512" xml:space="preserve">
<g>
	<circle style="fill:#FEE187;" cx="405.956" cy="391.793" r="49.853"/>
	<circle style="fill:#FEE187;" cx="104.714" cy="391.793" r="49.853"/>
	<path style="fill:#FEE187;" d="M498.701,329.185v54.615h-43.545c-3.827-23.73-24.396-41.855-49.205-41.855
		c-24.809,0-45.378,18.126-49.205,41.855H153.923c-3.827-23.73-24.396-41.855-49.205-41.855c-24.81,0-45.378,18.126-49.205,41.855
		H13.299v-54.615L498.701,329.185L498.701,329.185z"/>
	<path style="fill:#FEE187;" d="M368.349,273.331v-81.947h8.861l51.044,61.048c0.019,0.128,0.028,0.257,0.028,0.387v20.512H368.349z
		"/>
</g>
<g>
	<path style="fill:#FFC61B;" d="M498.701,315.887h-10.576v-63.068c0-11.961-3.406-23.609-9.848-33.686
		c-0.305-0.476-0.638-0.934-1.001-1.367l-68.109-81.459c-2.527-3.021-6.264-4.768-10.203-4.768h-30.616
		c-7.344,0-13.299,5.954-13.299,13.299c0,7.345,5.955,13.299,13.299,13.299h24.4l63.535,75.987
		c3.434,5.635,5.244,12.081,5.244,18.694v63.068H333.771V70.35c0-7.345-5.955-13.299-13.299-13.299H109.248
		c-47.075,0-85.372,38.298-85.372,85.372v112.289c0,7.345,5.955,13.299,13.299,13.299h198.213c7.344,0,13.299-5.954,13.299-13.299
		c0-7.345-5.955-13.299-13.299-13.299H50.473v-98.99c0-32.409,26.366-58.775,58.775-58.775h197.926v232.238H13.299
		C5.955,315.887,0,321.841,0,329.185v54.615c0,7.345,5.955,13.299,13.299,13.299h28.508c2.704,32.348,29.878,57.849,62.911,57.849
		s60.207-25.502,62.911-57.849h175.41c2.704,32.348,29.878,57.849,62.912,57.849s60.207-25.502,62.911-57.849h29.84
		c7.344,0,13.299-5.954,13.299-13.299v-54.615C512,321.841,506.045,315.887,498.701,315.887z M366.355,342.484
		c-8.954,7.183-15.919,16.807-19.888,28.018H164.202c-3.97-11.211-10.934-20.835-19.888-28.018H366.355z M26.597,342.484h38.526
		c-8.954,7.183-15.92,16.807-19.89,28.018H26.597V342.484z M104.718,428.351c-20.156,0-36.553-16.399-36.553-36.554
		c0-2.246,0.214-4.442,0.604-6.578c0.053-0.29,0.101-0.581,0.161-0.868c3.072-14.784,15.101-26.325,30.136-28.668
		c0.053-0.008,0.106-0.017,0.16-0.025c0.495-0.074,0.993-0.136,1.495-0.19c0.126-0.013,0.253-0.031,0.38-0.043
		c0.443-0.044,0.888-0.074,1.335-0.102c0.165-0.011,0.328-0.025,0.495-0.033c0.521-0.025,1.047-0.037,1.575-0.04
		c0.072,0,0.142-0.005,0.214-0.005c0.072,0,0.142,0.004,0.214,0.005c0.527,0.003,1.053,0.015,1.575,0.04
		c0.166,0.008,0.33,0.023,0.495,0.033c0.447,0.028,0.892,0.059,1.335,0.102c0.128,0.012,0.253,0.029,0.38,0.043
		c0.501,0.055,1,0.116,1.495,0.19c0.053,0.008,0.106,0.017,0.16,0.025c15.026,2.342,27.05,13.871,30.131,28.643
		c0.076,0.368,0.141,0.742,0.206,1.114c0.364,2.067,0.565,4.188,0.565,6.358C141.271,411.954,124.873,428.351,104.718,428.351z
		 M405.952,428.351c-20.156,0-36.554-16.399-36.554-36.554c0-2.174,0.202-4.301,0.568-6.373c0.064-0.367,0.128-0.735,0.202-1.098
		c3.08-14.774,15.105-26.302,30.132-28.645c0.053-0.008,0.106-0.017,0.16-0.025c0.495-0.074,0.993-0.136,1.493-0.19
		c0.126-0.013,0.253-0.031,0.38-0.043c0.443-0.044,0.888-0.074,1.335-0.102c0.165-0.011,0.328-0.025,0.495-0.033
		c0.523-0.025,1.048-0.037,1.575-0.04c0.072,0,0.142-0.005,0.214-0.005s0.142,0.004,0.214,0.005c0.527,0.003,1.053,0.015,1.575,0.04
		c0.166,0.008,0.33,0.023,0.495,0.033c0.447,0.028,0.892,0.059,1.335,0.102c0.128,0.012,0.253,0.029,0.38,0.043
		c0.501,0.055,1,0.116,1.495,0.19c0.053,0.008,0.106,0.017,0.16,0.025c15.026,2.342,27.05,13.871,30.13,28.643
		c0.076,0.368,0.141,0.742,0.206,1.114c0.364,2.067,0.565,4.188,0.565,6.358C442.505,411.954,426.108,428.351,405.952,428.351z
		 M485.403,370.502h-19.968c-3.968-11.211-10.934-20.835-19.888-28.018h39.856V370.502z"/>
	<path style="fill:#FFC61B;" d="M368.347,286.63h59.932c7.344,0,13.299-5.954,13.299-13.299v-20.512c0-0.753-0.053-1.513-0.16-2.258
		c-0.348-2.452-1.375-4.76-2.964-6.66l-51.044-61.048c-2.527-3.021-6.264-4.768-10.203-4.768h-8.861
		c-7.344,0-13.299,5.954-13.299,13.299v81.947C355.049,280.676,361.004,286.63,368.347,286.63z M381.646,217.424l33.335,39.868
		v2.741h-33.335V217.424z"/>
</g>
</svg>