<?xml version="1.0" encoding="iso-8859-1"?>
<!-- Uploaded to: SVG Repo, www.svgrepo.com, Generator: SVG Repo Mixer Tools -->
<svg fill="#000000" height="800px" width="800px" version="1.1" id="Layer_1" xmlns="http://www.w3.org/2000/svg" xmlns:xlink="http://www.w3.org/1999/xlink" 
	 viewBox="0 0 512 512" xml:space="preserve">
<g>
	<g>
		<g>
			<path d="M133.595,321.191c-5.604,0-10.146,4.543-10.146,10.146c0,2.797-2.276,5.073-5.073,5.073
				c-5.604,0-10.146,4.543-10.146,10.146c0,5.604,4.543,10.146,10.146,10.146c13.987,0,25.366-11.379,25.366-25.366
				C143.741,325.734,139.198,321.191,133.595,321.191z"/>
			<path d="M343.569,321.191c-5.604,0-10.146,4.543-10.146,10.146c0,2.797-2.276,5.073-5.073,5.073
				c-5.604,0-10.146,4.543-10.146,10.146c0,5.604,4.543,10.146,10.146,10.146c13.987,0,25.366-11.379,25.366-25.366
				C353.716,325.734,349.173,321.191,343.569,321.191z"/>
			<path d="M251.294,265.386h-0.888c-5.604,0-10.146,4.543-10.146,10.146s4.543,10.146,10.146,10.146h0.888
				c5.604,0,10.146-4.543,10.146-10.146S256.896,265.386,251.294,265.386z"/>
			<path d="M510.466,275.241c-1.853-2.974-5.109-4.781-8.612-4.781h-72.04c-3.165,0-5.989,1.45-7.85,3.721h-27.666v-48.365
				c0-5.209-3.945-9.573-9.129-10.096l-21.771-2.196l2.27-20.167l24.878,2.509c0.346,0.034,0.69,0.052,1.031,0.052
				c5.145,0,9.555-3.9,10.084-9.13c0.562-5.575-3.502-10.551-9.077-11.113l-64.087-6.463c-5.57-0.552-10.55,3.502-11.113,9.077
				c-0.562,5.575,3.502,10.551,9.077,11.113l19.016,1.918l-2.27,20.167l-75.892-7.654l-7.528-52.555
				c-2.683-20.852-20.533-36.567-41.56-36.567H163.02c-0.115,0-2.495,0-4.252,0.933l-43.964,20.293
				c-3.594,1.659-5.894,5.255-5.894,9.213v69.539l-36.192,7.992V191.23c0-2.691-1.069-5.272-2.972-7.175L54.63,168.941
				c-3.962-3.962-10.387-3.962-14.35,0c-3.962,3.962-3.962,10.387,0,14.35l12.142,12.142v31.729l-24.845,5.486
				c-4.649,1.026-7.959,5.147-7.959,9.908v78.635h-9.473C4.543,321.191,0,325.734,0,331.338s4.543,10.146,10.146,10.146h43.058
				c4.895,31.566,32.253,55.805,65.169,55.805h74.576c5.604,0,10.146-4.543,10.146-10.146s-4.543-10.146-10.146-10.146h-27.053
				c9.178-9.55,15.526-21.837,17.647-35.513h79.631c4.895,31.566,32.253,55.805,65.169,55.805c35.117,0,63.904-27.59,65.84-62.231
				h30.356c5.113,7.546,13.755,12.514,23.536,12.514c19.557,0,37.765-11.344,46.385-28.898l16.498-33.596
				C512.505,281.934,512.318,278.214,510.466,275.241z M173.166,135.005h45.06c10.858-0.001,20.074,8.128,21.438,18.908
				c0.007,0.055,0.014,0.11,0.022,0.165l7.005,48.908h-30.911v-26.888c0-5.604-4.543-10.146-10.146-10.146
				s-10.146,4.543-10.146,10.146v26.888h-22.322V135.005z M129.201,151.642l23.672-10.927v64.266l-23.672,5.227V151.642z
				 M118.375,376.996c-24.974,0-45.318-20.157-45.644-45.054c0.012-0.201,0.03-0.401,0.03-0.605c0-0.202-0.018-0.399-0.03-0.597
				c0.323-24.901,20.667-45.062,45.644-45.062c25.176,0,45.659,20.483,45.659,45.659S143.552,376.996,118.375,376.996z
				 M328.345,376.996c-25.176,0-45.659-20.483-45.659-45.659s20.483-45.659,45.659-45.659s45.659,20.483,45.659,45.659
				S353.521,376.996,328.345,376.996z M328.345,265.387c-32.917-0.001-60.276,24.24-65.169,55.807l-0.002-0.002h-79.625
				l-0.002,0.002c-2.121-13.676-8.468-25.965-17.647-35.515h46.839c5.604,0,10.146-4.543,10.146-10.146s-4.543-10.146-10.146-10.146
				h-94.362c-32.917,0-60.276,24.241-65.17,55.807l-0.002-0.002H39.912v-70.484l124.215-27.429h93.758l116.119,11.711v48.8
				l0.007,0.031C362.15,272.418,346.058,265.387,328.345,265.387z M419.667,314.765h-25.366v-20.293h25.366V314.765z
				 M476.248,309.73c-5.236,10.661-16.293,17.55-28.171,17.55c-4.476,0-8.117-3.642-8.117-8.117v-28.41h45.607L476.248,309.73z"/>
			<path d="M232.523,376.996h-1.015c-5.604,0-10.146,4.543-10.146,10.146s4.543,10.146,10.146,10.146h1.015
				c5.604,0,10.146-4.543,10.146-10.146S238.126,376.996,232.523,376.996z"/>
		</g>
	</g>
</g>
</svg>