<?xml version="1.0" encoding="iso-8859-1"?>
<!-- Uploaded to: SVG Repo, www.svgrepo.com, Generator: SVG Repo Mixer Tools -->
<svg fill="#000000" height="800px" width="800px" version="1.1" id="Layer_1" xmlns="http://www.w3.org/2000/svg" xmlns:xlink="http://www.w3.org/1999/xlink" 
	 viewBox="0 0 512 512" xml:space="preserve">
<g>
	<g>
		<g>
			<path d="M384,375.467c14.114,0,25.6-11.486,25.6-25.6c0-14.114-11.486-25.6-25.6-25.6s-25.6,11.486-25.6,25.6
				C358.4,363.981,369.886,375.467,384,375.467z M384,341.333c4.702,0,8.533,3.831,8.533,8.533c0,4.702-3.831,8.533-8.533,8.533
				c-4.702,0-8.533-3.831-8.533-8.533C375.467,345.165,379.298,341.333,384,341.333z"/>
			<path d="M128,443.733H8.533c-4.71,0-8.533,3.823-8.533,8.533s3.823,8.533,8.533,8.533H128c4.71,0,8.533-3.823,8.533-8.533
				S132.71,443.733,128,443.733z"/>
			<path d="M110.933,324.267c-14.114,0-25.6,11.486-25.6,25.6c0,14.114,11.486,25.6,25.6,25.6s25.6-11.486,25.6-25.6
				C136.533,335.753,125.047,324.267,110.933,324.267z M110.933,358.4c-4.702,0-8.533-3.831-8.533-8.533
				c0-4.702,3.831-8.533,8.533-8.533c4.702,0,8.533,3.831,8.533,8.533C119.467,354.569,115.635,358.4,110.933,358.4z"/>
			<path d="M110.933,273.067c-42.342,0-76.8,34.458-76.8,76.8c0,42.342,34.458,76.8,76.8,76.8s76.8-34.458,76.8-76.8
				C187.733,307.524,153.276,273.067,110.933,273.067z M110.933,409.6c-32.939,0-59.733-26.795-59.733-59.733
				c0-32.939,26.795-59.733,59.733-59.733s59.733,26.795,59.733,59.733C170.667,382.805,143.872,409.6,110.933,409.6z"/>
			<path d="M264.533,443.733H179.2c-4.71,0-8.533,3.823-8.533,8.533s3.823,8.533,8.533,8.533h85.333c4.71,0,8.533-3.823,8.533-8.533
				S269.244,443.733,264.533,443.733z"/>
			<path d="M288.606,85.47c-4.634,0.845-7.706,5.291-6.869,9.924l14.037,77.175c0.751,4.122,4.335,7.006,8.388,7.006
				c0.503,0,1.015-0.043,1.527-0.137c4.642-0.845,7.714-5.291,6.869-9.924L298.53,92.339
				C297.685,87.706,293.239,84.634,288.606,85.47z"/>
			<path d="M220.339,85.47c-4.634,0.845-7.706,5.282-6.869,9.924l24.755,136.149c0.742,4.122,4.335,7.014,8.38,7.014
				c0.503,0,1.024-0.051,1.536-0.145c4.642-0.836,7.714-5.282,6.869-9.916L230.263,92.339
				C229.419,87.706,224.99,84.634,220.339,85.47z"/>
			<path d="M152.073,85.47c-4.634,0.845-7.714,5.282-6.869,9.924l21.675,119.219c0.751,4.122,4.344,7.006,8.388,7.006
				c0.503,0,1.024-0.043,1.536-0.137c4.634-0.845,7.714-5.291,6.869-9.916L161.997,92.339
				C161.152,87.706,156.706,84.634,152.073,85.47z"/>
			<path d="M83.806,85.47c-4.634,0.845-7.714,5.291-6.869,9.924l18.569,102.11c0.751,4.113,4.343,7.006,8.388,7.006
				c0.503,0,1.016-0.051,1.527-0.136c4.642-0.845,7.714-5.291,6.878-9.924L93.73,92.339C92.885,87.706,88.457,84.634,83.806,85.47z"
				/>
			<path d="M503.467,443.733H366.933c-4.71,0-8.533,3.823-8.533,8.533s3.823,8.533,8.533,8.533h136.533
				c4.71,0,8.533-3.823,8.533-8.533S508.177,443.733,503.467,443.733z"/>
			<path d="M332.8,443.733h-17.067c-4.71,0-8.533,3.823-8.533,8.533s3.823,8.533,8.533,8.533H332.8c4.71,0,8.533-3.823,8.533-8.533
				S337.51,443.733,332.8,443.733z"/>
			<path d="M494.933,208.623V128c0-23.526-19.14-42.667-42.667-42.667h-85.333c-3.678,0-6.929,2.347-8.098,5.837l-59.733,179.2
				c-0.265,0.794-0.41,1.63-0.435,2.466L44.604,213.555c-0.631-0.145-1.28-0.222-1.937-0.222c0-0.495-0.043-0.99-0.128-1.485
				L17.203,68.267H435.2c4.71,0,8.533-3.823,8.533-8.533c0-4.71-3.823-8.533-8.533-8.533H17.067C7.654,51.2,0,58.854,0,68.267
				c0,0.495,0.043,0.99,0.128,1.485l25.489,144.452c0.444,8.627,7.313,15.59,15.906,16.162l255.206,59.546
				c0.631,0.145,1.28,0.222,1.937,0.222c8.866,0,16.179-6.801,16.99-15.454L373.086,102.4h79.181c14.114,0,25.6,11.486,25.6,25.6
				v76.8h-28.86l10.897-21.786c2.108-4.216,0.393-9.335-3.823-11.452c-4.224-2.116-9.344-0.393-11.452,3.823L429.926,204.8h-62.993
				c-4.71,0-8.533,3.823-8.533,8.533s3.823,8.533,8.533,8.533h117.12c3.26,2.116,10.88,8.004,10.88,17.067V256H486.4
				c-4.71,0-8.533,3.823-8.533,8.533s3.823,8.533,8.533,8.533h8.533v68.267H486.4c-4.71,0-8.533,3.823-8.533,8.533
				s3.823,8.533,8.533,8.533h17.067c4.71,0,8.533-3.823,8.533-8.533V238.933C512,223.164,501.35,213.197,494.933,208.623z"/>
			<path d="M307.703,358.4c4.267,38.34,36.838,68.267,76.297,68.267c42.342,0,76.8-34.458,76.8-76.8c0-42.342-34.458-76.8-76.8-76.8
				c-39.458,0-72.03,29.926-76.297,68.267h-94.37c-4.71,0-8.533,3.823-8.533,8.533s3.823,8.533,8.533,8.533H307.703z M384,290.133
				c32.939,0,59.733,26.795,59.733,59.733c0,32.939-26.795,59.733-59.733,59.733c-32.939,0-59.733-26.795-59.733-59.733
				C324.267,316.928,351.061,290.133,384,290.133z"/>
		</g>
	</g>
</g>
</svg>