<?xml version="1.0" encoding="iso-8859-1"?>
<!-- Uploaded to: SVG Repo, www.svgrepo.com, Generator: SVG Repo Mixer Tools -->
<svg height="800px" width="800px" version="1.1" id="Layer_1" xmlns="http://www.w3.org/2000/svg" xmlns:xlink="http://www.w3.org/1999/xlink" 
	 viewBox="0 0 512 512" xml:space="preserve">
<polygon style="fill:#FFA800;" points="265.508,287.541 242.267,330.494 170.431,330.494 170.431,287.541 "/>
<polygon style="fill:#FFCD02;" points="301.954,134.361 288.939,210.285 282.939,245.284 148.595,245.284 28.872,192.411 
	28.872,192.4 10.565,184.319 58.98,134.361 "/>
<polygon style="fill:#6D6E71;" points="331.811,210.285 344.05,139.945 435.238,139.945 470.98,210.284 "/>
<path style="fill:#ECF0F1;" d="M501.436,210.285L469.86,316.064c-6.55-40.144-41.39-70.78-83.393-70.78
	c-31.28,0-58.599,16.998-73.209,42.256H186.594c-14.61-25.259-41.929-42.256-73.209-42.256c-19.544,0-37.534,6.634-51.849,17.769
	l-32.664-70.642l119.723,52.873h134.344l6-34.999L501.436,210.285L501.436,210.285z"/>
<path style="fill:#6D6E71;" d="M197.898,329.797c0,0.232,0,0.465-0.011,0.697c-0.37,46.355-38.062,83.816-84.502,83.816
	c-46.672,0-84.513-37.841-84.513-84.513c0-27.139,12.783-51.278,32.664-66.744c14.314-11.135,32.305-17.769,51.849-17.769
	c31.28,0,58.599,16.998,73.209,42.256C193.778,299.975,197.898,314.405,197.898,329.797z"/>
<path style="fill:#ECF0F1;" d="M113.385,372.048c-23.3,0-42.256-18.956-42.256-42.256c0-23.3,18.956-42.256,42.256-42.256
	s42.256,18.956,42.256,42.256C155.641,353.092,136.685,372.048,113.385,372.048z"/>
<path style="fill:#6D6E71;" d="M470.98,329.797c0,46.672-37.841,84.513-84.513,84.513s-84.513-37.841-84.513-84.513
	c0-15.392,4.12-29.822,11.304-42.256c14.61-25.259,41.929-42.256,73.209-42.256c42.003,0,76.843,30.636,83.393,70.78
	C470.6,320.532,470.98,325.117,470.98,329.797z"/>
<path style="fill:#ECF0F1;" d="M386.467,372.048c-23.3,0-42.256-18.956-42.256-42.256c0-23.3,18.956-42.256,42.256-42.256
	s42.256,18.956,42.256,42.256C428.724,353.092,409.767,372.048,386.467,372.048z"/>
<g>
	<path style="fill:#231F20;" d="M113.385,276.971c-29.125,0-52.821,23.695-52.821,52.821c0,29.125,23.695,52.821,52.821,52.821
		s52.821-23.695,52.821-52.821C166.206,300.667,142.51,276.971,113.385,276.971z M113.385,361.484
		c-17.475,0-31.692-14.217-31.692-31.692c0-17.475,14.217-31.692,31.692-31.692s31.692,14.217,31.692,31.692
		C145.077,347.267,130.86,361.484,113.385,361.484z"/>
	<path style="fill:#231F20;" d="M386.467,276.971c-29.125,0-52.821,23.695-52.821,52.821c0,29.125,23.695,52.821,52.821,52.821
		s52.821-23.695,52.821-52.821C439.288,300.667,415.592,276.971,386.467,276.971z M386.467,361.484
		c-17.475,0-31.692-14.217-31.692-31.692c0-17.475,14.217-31.692,31.692-31.692s31.692,14.217,31.692,31.692
		C418.159,347.267,403.942,361.484,386.467,361.484z"/>
	<path style="fill:#231F20;" d="M205.866,171.964l0.06-0.35c0.986-5.751-2.878-11.212-8.629-12.196
		c-5.756-0.985-11.211,2.879-12.196,8.628l-0.06,0.35c-0.986,5.751,2.878,11.212,8.629,12.196c0.603,0.104,1.204,0.153,1.796,0.153
		C200.517,180.746,204.984,177.111,205.866,171.964z"/>
	<path style="fill:#231F20;" d="M509.908,203.973c-1.993-2.676-5.134-4.252-8.471-4.252h-23.974l-32.806-64.561
		c-1.801-3.545-5.441-5.779-9.418-5.779H344.05c-5.135,0-9.528,3.693-10.408,8.753l-10.716,61.587h-21.458l17.48-91.467h116.29
		c5.833,0,10.564-4.73,10.564-10.564s-4.731-10.564-10.564-10.564H310.582c-4.903,0-9.16,3.372-10.283,8.144l-6.712,28.527H58.98
		c-2.859,0-5.597,1.159-7.586,3.213L2.978,176.967c-2.405,2.482-3.445,5.984-2.783,9.376c0.661,3.392,2.94,6.245,6.102,7.641
		l14.653,6.468l27.634,59.763c-19.339,17.957-30.278,42.875-30.278,69.582c0,52.425,42.652,95.077,95.077,95.077
		c48.463,0,88.791-36.735,94.398-83.816h34.484c3.879,0,7.446-2.125,9.291-5.537l20.245-37.417h25.025
		c-3.575,10.133-5.438,20.857-5.438,31.692c0,52.425,42.652,95.077,95.077,95.077s95.077-42.652,95.077-95.077
		c0-4.349-0.314-8.69-0.898-12.936l30.913-103.555C512.513,210.109,511.901,206.649,509.908,203.973z M453.763,199.72h-61.133
		v-49.211h36.127L453.763,199.72z M352.935,150.509h18.566v49.211h-27.13L352.935,150.509z M141.527,144.925l-13.655,79.658
		l-24.265-10.716l11.819-68.942h26.101V144.925z M100.469,235.579l0.038,0.011c-12.242,1.642-23.917,5.631-34.588,11.813
		l0.006-0.024l-15.719-33.996L100.469,235.579z M190.772,197.487c-5.749-0.987-11.212,2.878-12.197,8.628l-4.904,28.605h-22.847
		l-3.026-1.336l15.165-88.459h73.64l-15.393,89.795h-26.102l4.292-25.036C200.385,203.933,196.522,198.473,190.772,197.487z
		 M258.04,144.925h31.385l-15.393,89.795h-31.385L258.04,144.925z M33.138,182.735l-4.432-1.956l34.747-35.854h30.534l-10.31,60.141
		l-50.124-22.136C33.418,182.862,33.28,182.798,33.138,182.735z M187.334,330.026c-0.005,0.128-0.01,0.256-0.011,0.383
		c-0.322,40.437-33.49,73.335-73.938,73.335c-40.775,0-73.949-33.173-73.949-73.949c0-22.986,10.419-44.274,28.586-58.406
		c13.073-10.168,28.759-15.543,45.362-15.543c26.322,0,50.869,14.171,64.062,36.976c6.468,11.196,9.887,23.981,9.887,36.972V330.026
		z M235.972,319.93h-28.03c-0.776-7.454-2.434-14.781-4.92-21.825h44.759L235.972,319.93z M386.467,403.746
		c-40.775,0-73.949-33.173-73.949-73.949c0-12.991,3.419-25.775,9.884-36.967c13.195-22.811,37.743-36.982,64.065-36.982
		c36.426,0,67.113,26.039,72.971,61.943c0.649,3.916,0.978,7.955,0.978,12.006C460.416,370.572,427.243,403.746,386.467,403.746z
		 M468.886,282.395l0.001,0.033c-5.354-9.305-12.275-17.728-20.55-24.826c-17.202-14.755-39.175-22.882-61.869-22.882
		c-31.76,0-61.506,16.044-79.066,42.259l-0.001-0.002H192.452h-0.002c-5.402-8.067-11.964-15.165-19.38-21.133l0.02,0.005h109.849
		c1.93,0,3.754-0.521,5.326-1.441c2.621-1.532,4.543-4.169,5.086-7.339l4.495-26.22h189.412L468.886,282.395z"/>
</g>
</svg>