<?xml version="1.0" encoding="iso-8859-1"?>
<!-- Uploaded to: SVG Repo, www.svgrepo.com, Generator: SVG Repo Mixer Tools -->
<!DOCTYPE svg PUBLIC "-//W3C//DTD SVG 1.1//EN" "http://www.w3.org/Graphics/SVG/1.1/DTD/svg11.dtd">
<svg fill="#000000" height="800px" width="800px" version="1.1" id="Capa_1" xmlns="http://www.w3.org/2000/svg" xmlns:xlink="http://www.w3.org/1999/xlink" 
	 viewBox="0 0 470 470" xml:space="preserve">
<g>
	<path d="M468.353,249.443l-92.891-115.93c-1.423-1.776-3.576-2.81-5.853-2.81h-64.328c-4.143,0-7.5,3.358-7.5,7.5
		s3.357,7.5,7.5,7.5h60.727L455,256.767V305.5h-4.962c-4.143,0-7.5,3.358-7.5,7.5s3.357,7.5,7.5,7.5H455v15.605h-39.078
		c-7.396-21.99-28.191-37.879-52.641-37.879s-45.245,15.889-52.641,37.879h-28.328V75.703h22.969c4.143,0,7.5-3.358,7.5-7.5
		s-3.357-7.5-7.5-7.5H62.514c-2.68,0-5.155,1.43-6.495,3.75L1.005,159.739C0.347,160.879,0,162.173,0,163.489v180.116
		c0,4.142,3.357,7.5,7.5,7.5h13.751c-0.027,0.884-0.067,1.766-0.067,2.656c0,4.142,3.357,7.5,7.5,7.5s7.5-3.358,7.5-7.5
		c0-38.894,31.642-70.536,70.535-70.536s70.535,31.642,70.535,70.536c0,4.142,3.357,7.5,7.5,7.5s7.5-3.358,7.5-7.5
		c0-0.891-0.04-1.772-0.067-2.656h82.626h33.001c-0.042,0.881-0.067,1.766-0.067,2.656c0,30.622,24.913,55.535,55.535,55.535
		s55.535-24.913,55.535-55.535c0-0.891-0.026-1.775-0.067-2.656H462.5c4.143,0,7.5-3.358,7.5-7.5v-89.473
		C470,252.428,469.419,250.773,468.353,249.443z M106.719,268.226c-41.112,0-75.533,29.159-83.693,67.879H15V165.499l51.844-89.796
		h200.469v260.402h-76.901C182.252,297.385,147.831,268.226,106.719,268.226z M363.281,394.297
		c-22.352,0-40.535-18.184-40.535-40.535c0-22.352,18.184-40.536,40.535-40.536s40.535,18.184,40.535,40.536
		C403.816,376.113,385.633,394.297,363.281,394.297z"/>
	<path d="M147.651,112.821c-1.34-2.32-3.815-3.75-6.495-3.75s-5.155,1.43-6.495,3.75l-55.014,95.287c-1.34,2.32-1.34,5.18,0,7.5
		s3.815,3.75,6.495,3.75h45.823l-4.611,4.81c-2.866,2.99-2.767,7.738,0.224,10.604c1.454,1.394,3.323,2.086,5.189,2.086
		c1.973,0,3.942-0.773,5.415-2.31l16.775-17.5c2.781-2.901,2.781-7.479,0-10.38l-16.775-17.5c-2.866-2.99-7.613-3.09-10.604-0.224
		c-2.99,2.866-3.09,7.614-0.224,10.604l4.611,4.81H99.133l42.023-72.787l42.023,72.787h-6.175c-4.143,0-7.5,3.358-7.5,7.5
		s3.357,7.5,7.5,7.5h19.165c2.68,0,5.155-1.43,6.495-3.75s1.34-5.18,0-7.5L147.651,112.821z"/>
	<path d="M305.281,160.703c-4.143,0-7.5,3.358-7.5,7.5v65.819c0,4.142,3.357,7.5,7.5,7.5h102.663c4.143,0,7.5-3.358,7.5-7.5
		s-3.357-7.5-7.5-7.5h-95.163v-58.319C312.781,164.061,309.424,160.703,305.281,160.703z"/>
	<path d="M106.719,298.226c-30.622,0-55.535,24.913-55.535,55.536c0,30.622,24.913,55.535,55.535,55.535
		s55.535-24.913,55.535-55.535C162.254,323.139,137.341,298.226,106.719,298.226z M106.719,394.297
		c-22.352,0-40.535-18.184-40.535-40.535c0-22.352,18.184-40.536,40.535-40.536s40.535,18.184,40.535,40.536
		C147.254,376.113,129.07,394.297,106.719,394.297z"/>
</g>
</svg>