<?xml version="1.0" encoding="iso-8859-1"?>
<!-- Uploaded to: SVG Repo, www.svgrepo.com, Generator: SVG Repo Mixer Tools -->
<svg fill="#000000" height="800px" width="800px" version="1.1" id="Layer_1" xmlns="http://www.w3.org/2000/svg" xmlns:xlink="http://www.w3.org/1999/xlink" 
	 viewBox="0 0 511.999 511.999" xml:space="preserve">
<g>
	<g>
		<path d="M492.598,281.626c-0.068-37.872-30.895-68.661-68.781-68.661h-65.61v-37.038c0-5.845-4.739-10.582-10.582-10.582
			c-5.843,0-10.582,4.738-10.582,10.582v37.038h-32.805v-61.906c0-5.845-4.739-10.582-10.582-10.582h-98.415
			c-5.843,0-10.582,4.738-10.582,10.582v61.906h-25.397v-30.688c0-2.278-0.735-4.496-2.096-6.323l-20.106-26.985
			c-3.492-4.687-10.121-5.655-14.808-2.163c-4.687,3.492-5.655,10.122-2.163,14.809l18.01,24.171v27.179h-38.096v-29.63
			c0-5.845-4.739-10.582-10.582-10.582s-10.582,4.738-10.582,10.582v29.63H20.635c-5.844,0-10.582,4.738-10.582,10.582v80.451
			C4.456,304.276,0,308.889,0,314.555c0,5.845,4.739,10.582,10.582,10.582h35.966c1.989,25.908,23.691,46.385,50.1,46.385
			c16.119,0,30.479-7.635,39.683-19.468c9.204,11.833,23.564,19.468,39.683,19.468c2.844,0,62.261-0.706,62.261-0.706
			c5.844,0,10.582-4.738,10.582-10.582c0-5.845-4.739-10.582-10.582-10.582h-20.813c4.867-7.082,7.959-15.467,8.653-24.516h37.909
			c3.156,0,6.148-1.41,8.159-3.842l37.038-44.836h27.821v31.57h-13.228c-5.844,0-10.582,4.738-10.582,10.582v42.329
			c0,5.845,4.739,10.582,10.582,10.582h47.62c5.844,0,10.582-4.738,10.582-10.582v-31.747h30.084
			c3.817,23.958,24.617,42.329,49.633,42.329c27.716,0,50.265-22.55,50.265-50.266C511.999,305.169,504.392,290.832,492.598,281.626
			z M358.207,234.13h65.61c22.827,0,41.944,16.148,46.552,37.619c-2.807-0.488-5.69-0.758-8.635-0.758
			c-4.52,0-8.896,0.61-13.066,1.733c-3.7-10.154-13.434-17.43-24.851-17.43h-65.61V234.13z M205.823,161.642h21.873v73.546h-21.873
			V161.642z M96.647,350.357c-16.046,0-29.101-13.054-29.101-29.101s13.055-29.101,29.101-29.101
			c16.046,0,29.101,13.054,29.101,29.101S112.693,350.357,96.647,350.357z M176.014,350.357c-16.046,0-29.101-13.054-29.101-29.101
			s13.055-29.101,29.101-29.101c16.046,0,29.101,13.054,29.101,29.101S192.06,350.357,176.014,350.357z M304.237,255.294
			c-3.156,0-6.148,1.41-8.159,3.842l-37.038,44.836h-35.824c-7.063-19.227-25.557-32.982-47.203-32.982
			c-16.119,0-30.479,7.635-39.683,19.468c-9.204-11.833-23.564-19.468-39.683-19.468c-21.646,0-40.14,13.754-47.203,32.982H31.216
			V234.13h153.442v11.64c0,5.845,4.739,10.582,10.582,10.582h43.038c5.844,0,10.582-4.738,10.582-10.582v-84.129h34.212v61.906
			c0,5.845,4.739,10.582,10.582,10.582h43.387v21.164H304.237z M360.852,350.357h-26.456v-21.164h26.456V350.357z M429.107,283.065
			c-7.551,6.46-13.17,15.111-15.861,24.963h-41.812h-4.41h-8.818v-31.57h65.61c2.918,0,5.291,2.374,5.291,5.291V283.065z
			 M461.733,350.357c-16.046,0-29.101-13.054-29.101-29.101s13.055-29.101,29.101-29.101c16.046,0,29.101,13.054,29.101,29.101
			S477.779,350.357,461.733,350.357z"/>
	</g>
</g>
</svg>