<?xml version="1.0" encoding="iso-8859-1"?>
<!-- Uploaded to: SVG Repo, www.svgrepo.com, Generator: SVG Repo Mixer Tools -->
<svg fill="#000000" height="800px" width="800px" version="1.1" id="Layer_1" xmlns="http://www.w3.org/2000/svg" xmlns:xlink="http://www.w3.org/1999/xlink" 
	 viewBox="0 0 512 512" xml:space="preserve">
<g>
	<g>
		<g>
			<path d="M231.95,333.208c-5.682,0-10.305,4.623-10.305,10.305c0,5.682,4.623,10.305,10.305,10.305
				c5.682,0,10.305-4.623,10.305-10.305C242.254,337.83,237.632,333.208,231.95,333.208z"/>
			<path d="M511.494,397.6l-18.641-57.278c-1.381-4.244-5.337-7.115-9.799-7.115h-11.989c-15.409,0-28.755,8.996-35.065,22.011
				l-9.278-6.386c-2.128-26.287-19.103-48.431-42.519-58.014v-20.825l6.291-10.625c2.899-4.897,1.28-11.218-3.617-14.117
				c-4.897-2.902-11.217-1.282-14.118,3.617l-7.729,13.053c-0.941,1.589-1.438,3.403-1.438,5.25v18.775
				c-1.759-0.136-3.53-0.227-5.324-0.227h-16.831v-81.194c0-5.69-4.613-10.305-10.305-10.305H241.48
				c-4.94,0-9.186,3.506-10.119,8.356l-14.448,75.059c-7.202,1.644-13.975,4.424-20.103,8.169l-88.736-168.384
				c-3.85-7.305-10.314-12.674-18.201-15.118c-7.888-2.442-16.256-1.668-23.56,2.182c-7.305,3.849-12.674,10.314-15.117,18.201
				c-2.443,7.888-1.668,16.255,2.182,23.56l10.973,20.821L5.642,340.061C2.047,346.822,0,354.527,0,362.704
				c0,26.683,21.707,48.391,48.389,48.391h61.528c3.784,0,7.264-2.074,9.064-5.402c1.8-3.327,1.631-7.375-0.439-10.542
				l-44.051-67.368L62.4,236.943l15.187-44.753l89.235,169.331c7.904,28.547,34.098,49.575,65.127,49.575
				c29.856,0,55.236-19.469,64.154-46.372h33.818c-0.212,1.69-0.334,3.407-0.334,5.152c0,22.728,18.491,41.219,41.219,41.219
				c22.728,0,41.219-18.491,41.219-41.219c0-1.746-0.122-3.462-0.334-5.152h1.767l19.084,13.136
				c2.77,18.777,18.988,33.236,38.522,33.236h30.63c3.3,0,6.399-1.58,8.339-4.25C511.972,404.175,512.515,400.738,511.494,397.6z
				 M47.467,280.949l4.44,33.366h-3.518c-4.444,0-8.746,0.614-12.837,1.742L47.467,280.949z M90.867,390.485H48.389
				c-15.317,0-27.78-12.463-27.78-27.781c0-15.317,12.463-27.78,27.78-27.78h6.148l0.142,0.219l0.369,2.772
				c0.536,4.026,3.333,7.189,6.938,8.403L90.867,390.485z M168.444,320.389L71.609,136.638c-1.284-2.435-1.542-5.224-0.728-7.853
				c0.815-2.63,2.604-4.785,5.041-6.069c1.502-0.792,3.139-1.193,4.79-1.193c1.024,0,2.055,0.155,3.062,0.467
				c2.629,0.814,4.785,2.604,6.068,5.04l90.888,172.467C175.466,305.613,171.263,312.669,168.444,320.389z M231.949,390.485
				c-25.901,0-46.973-21.072-46.973-46.974c0-25.901,21.071-46.973,46.973-46.973c25.901,0,46.973,21.071,46.973,46.973
				C278.921,369.413,257.85,390.485,231.949,390.485z M320.828,296.024v48.09h-21.311c0.002-0.201,0.016-0.4,0.016-0.602
				c0-15.004-4.921-28.876-13.225-40.102V245.53c0-5.69-4.613-10.305-10.305-10.305s-10.305,4.615-10.305,10.305v39.467
				c-8.241-4.771-17.571-7.855-27.524-8.769l11.819-61.397h70.836V296.024z M370.806,390.485c-11.364,0-20.61-9.246-20.61-20.61
				s9.246-20.61,20.61-20.61c11.364,0,20.61,9.246,20.61,20.61S382.17,390.485,370.806,390.485z M402.949,344.113
				c-7.561-9.414-19.157-15.457-32.143-15.457c-11.487,0-21.886,4.728-29.369,12.334v-34.661h16.832v0
				c22.98,0,42.248,16.204,46.978,37.785H402.949z M471.064,390.485L471.064,390.485c-10.11,0-18.334-8.224-18.334-18.334
				c0-10.11,8.224-18.334,18.334-18.334h4.506l11.934,36.669H471.064z"/>
		</g>
	</g>
</g>
</svg>