<?xml version="1.0" encoding="iso-8859-1"?>
<!-- Uploaded to: SVG Repo, www.svgrepo.com, Generator: SVG Repo Mixer Tools -->
<svg height="800px" width="800px" version="1.1" id="Layer_1" xmlns="http://www.w3.org/2000/svg" xmlns:xlink="http://www.w3.org/1999/xlink" 
	 viewBox="0 0 496.158 496.158" xml:space="preserve">
<path style="fill:#D61E1E;" d="M248.082,0.003C111.07,0.003,0,111.063,0,248.085c0,137.001,111.07,248.07,248.082,248.07
	c137.006,0,248.076-111.069,248.076-248.07C496.158,111.062,385.088,0.003,248.082,0.003z"/>
<path style="fill:#F4EDED;" d="M248.082,39.002C132.609,39.002,39,132.602,39,248.084c0,115.463,93.609,209.072,209.082,209.072
	c115.467,0,209.076-93.609,209.076-209.072C457.158,132.602,363.549,39.002,248.082,39.002z"/>
<g>
	<path style="fill:#5B5147;" d="M393.365,294.929l0.078-28.021c0-8.184-22.495-14.829-22.495-14.829l-2.006-21
		c0-11.057-8.959-20.005-20.016-20.005h-35.312c-7.854,0-15.418,4.557-19.189,11.14v-49.135c0-13.919-11.284-18.518-25.203-18.518
		H130.098c-13.918,0-25.203,4.599-25.203,18.518v117.159c0,1.632,0.176,3.214,0.486,4.753c-4,0.352-7.15,3.679-7.15,7.771v9.869
		c0,4.319,3.502,7.822,7.821,7.822h31.839c0.867-17.362,15.221-31.176,32.797-31.176c17.567,0,31.932,13.813,32.799,31.176h96.774
		c0.866-17.362,15.22-31.176,32.798-31.176c17.567,0,31.931,13.813,32.798,31.176h27.509c4.318,0,7.822-3.503,7.822-7.822v-9.869
		C401.187,298.443,397.683,294.929,393.365,294.929z"/>
	<path style="fill:#5B5147;" d="M170.687,296.276c-14.269,0-25.839,11.57-25.839,25.839c0,14.27,11.57,25.832,25.839,25.832
		c14.262,0,25.84-11.562,25.84-25.832C196.527,307.846,184.949,296.276,170.687,296.276z"/>
	<path style="fill:#5B5147;" d="M332.687,296.276c-14.269,0-25.839,11.57-25.839,25.839c0,14.27,11.57,25.832,25.839,25.832
		c14.262,0,25.84-11.562,25.84-25.832C358.527,307.846,346.949,296.276,332.687,296.276z"/>
</g>
<path style="fill:#D61E1E;" d="M85.85,60.394c-9.086,7.86-17.596,16.37-25.456,25.456l349.914,349.914
	c9.086-7.861,17.596-16.37,25.456-25.456L85.85,60.394z"/>
</svg>