<?xml version="1.0" encoding="iso-8859-1"?>
<!-- Uploaded to: SVG Repo, www.svgrepo.com, Generator: SVG Repo Mixer Tools -->
<!DOCTYPE svg PUBLIC "-//W3C//DTD SVG 1.1//EN" "http://www.w3.org/Graphics/SVG/1.1/DTD/svg11.dtd">
<svg fill="#000000" version="1.1" id="Capa_1" xmlns="http://www.w3.org/2000/svg" xmlns:xlink="http://www.w3.org/1999/xlink" 
	 width="800px" height="800px" viewBox="0 0 478.974 478.974"
	 xml:space="preserve">
<g>
	<g id="Layer_3_31_">
		<g>
			<path d="M103.482,283.122c-21.292,0-38.617,17.323-38.617,38.618s17.325,38.619,38.617,38.619
				c21.295,0,38.619-17.324,38.619-38.619S124.777,283.122,103.482,283.122z M103.482,342.015c-11.178,0-20.273-9.094-20.273-20.274
				c0-11.18,9.096-20.274,20.273-20.274c11.181,0,20.275,9.095,20.275,20.274C123.758,332.921,114.663,342.015,103.482,342.015z"/>
			<path d="M468.322,177.078l-261.398,0.086V129.72c0-6.134-4.972-11.106-11.105-11.106s-11.105,4.972-11.105,11.106v85.249
				l-9.639,0.002c0.019-0.208,0.032-86.667,0.032-86.667c0-3.931-3.188-7.117-7.118-7.117c-0.206,0-43.439-0.022-48.673-0.022
				c-25.485,0-52.817,22.615-81.234,67.218C17.8,220.219,15.665,227.6,3.881,252.845c-11.784,25.244,4.115,66.766,36.2,66.766
				c3.217,0,0.307,0.186,16.898,0.257c0.989-24.802,21.464-44.677,46.504-44.677c25.051,0,45.531,19.891,46.506,44.705
				c92.345,0,163.418,0,181.129,0c0.701-25.206,21.41-45.498,46.783-45.498c25.328,0,46.008,20.221,46.779,45.365
				c47.476-3.016,38.609-60.877,33.506-82.646c0.099-0.734,0.168-38.965,0.168-38.965h9.513c6.134,0,11.106-4.972,11.106-11.105
				C478.973,180.913,474.456,177.078,468.322,177.078z M148.86,239.375h-16.757c-2.177,0-3.941-1.765-3.941-3.942
				c0-2.178,1.765-3.943,3.941-3.943h16.757c2.178,0,3.942,1.765,3.942,3.943C152.802,237.61,151.038,239.375,148.86,239.375z
				 M42.431,215c3.2-5.619,6.67-11.435,10.369-17.24c24.298-38.139,47.92-59.144,66.515-59.144c5.265,0,24.003-0.073,41.556-0.108
				v75.83c0,0.215,0.014,0.427,0.032,0.637L42.431,215z"/>
			<path d="M377.9,282.593c-21.295,0-38.619,17.324-38.619,38.619c0,21.293,17.324,38.619,38.619,38.619
				s38.619-17.326,38.619-38.619C416.52,299.917,399.195,282.593,377.9,282.593z M377.9,341.486
				c-11.18,0-20.275-9.095-20.275-20.274c0-11.181,9.097-20.275,20.275-20.275s20.273,9.095,20.273,20.275
				C398.174,332.392,389.08,341.486,377.9,341.486z"/>
		</g>
	</g>
</g>
</svg>