<?xml version="1.0" encoding="iso-8859-1"?>
<!-- Uploaded to: SVG Repo, www.svgrepo.com, Generator: SVG Repo Mixer Tools -->
<svg fill="#000000" height="800px" width="800px" version="1.1" id="Layer_1" xmlns="http://www.w3.org/2000/svg" xmlns:xlink="http://www.w3.org/1999/xlink" 
	 viewBox="0 0 485 485" xml:space="preserve">
<path d="M485,201.083L378.07,65.02H0v295.402h51.284c1.811,33.147,29.344,59.559,62.935,59.559s61.124-26.412,62.935-59.559h130.693
	c1.811,33.147,29.344,59.559,62.935,59.559s61.124-26.412,62.935-59.559H485V201.083z M265.402,95.02V233.91H30V95.02H265.402z
	 M114.219,389.98c-18.216,0-33.035-14.819-33.035-33.035s14.819-33.035,33.035-33.035s33.035,14.819,33.035,33.035
	S132.435,389.98,114.219,389.98z M114.219,293.91c-25.286,0-47.129,14.973-57.163,36.511H30V263.91h235.402v66.511h-94.021
	C161.347,308.883,139.505,293.91,114.219,293.91z M370.781,389.98c-18.216,0-33.035-14.819-33.035-33.035
	s14.819-33.035,33.035-33.035s33.035,14.819,33.035,33.035S388.997,389.98,370.781,389.98z M455,330.421h-27.056
	c-10.034-21.539-31.877-36.511-57.163-36.511s-47.129,14.973-57.163,36.511h-18.216V95.02h68.089L455,211.46V330.421z"/>
</svg>