<?xml version="1.0" encoding="iso-8859-1"?>
<!-- Uploaded to: SVG Repo, www.svgrepo.com, Generator: SVG Repo Mixer Tools -->
<svg fill="#000000" height="800px" width="800px" version="1.1" id="Layer_1" xmlns="http://www.w3.org/2000/svg" xmlns:xlink="http://www.w3.org/1999/xlink" 
	 viewBox="0 0 512 512" xml:space="preserve">
<g>
	<g>
		<path d="M489.739,200.348c9.217,0,16.696-7.473,16.696-16.696V116.87c0-9.223-7.479-16.696-16.696-16.696h-16.696V50.087
			C473.043,22.468,450.576,0,422.957,0H89.044C61.424,0,38.957,22.468,38.957,50.087v50.087H22.261
			c-9.217,0-16.696,7.473-16.696,16.696v66.783c0,9.223,7.479,16.696,16.696,16.696h16.696V314.51
			c-19.435,6.892-33.391,25.462-33.391,47.229v66.783c0,9.223,7.479,16.696,16.696,16.696c23.451,0,456.068,0,467.478,0
			c9.217,0,16.696-7.473,16.696-16.696v-66.783c0-21.767-13.956-40.337-33.391-47.229V200.348H489.739z M105.739,311.652H72.348
			V200.348h33.391V311.652z M322.783,378.435H189.217c-9.217,0-16.696-7.473-16.696-16.696c0-9.223,7.479-16.696,16.696-16.696
			h133.565c9.217,0,16.696,7.473,16.696,16.696C339.478,370.962,332,378.435,322.783,378.435z M139.13,211.478v-27.826V116.87
			c0-9.206,7.49-16.696,16.696-16.696h83.478v111.304H139.13z M322.783,311.652H189.217c-9.217,0-16.696-7.473-16.696-16.696
			c0-9.223,7.479-16.696,16.696-16.696h133.565c9.217,0,16.696,7.473,16.696,16.696C339.478,304.179,332,311.652,322.783,311.652z
			 M372.87,183.652v27.826H272.696V100.174h83.478c9.206,0,16.696,7.49,16.696,16.696V183.652z M439.652,311.652h-33.391V200.348
			h33.391V311.652z M439.652,100.174h-36.468c-6.914-19.391-25.274-33.391-47.01-33.391H155.826c-21.737,0-40.096,14-47.01,33.391
			H72.348V50.087c0-9.206,7.49-16.696,16.696-16.696h333.913c9.206,0,16.696,7.49,16.696,16.696V100.174z"/>
	</g>
</g>
<g>
	<g>
		<path d="M372.87,478.609c0,18.413,14.978,33.391,33.391,33.391h33.391c18.413,0,33.391-14.978,33.391-33.391H372.87z"/>
	</g>
</g>
<g>
	<g>
		<path d="M38.957,478.609c0,18.413,14.978,33.391,33.391,33.391h33.391c18.413,0,33.391-14.978,33.391-33.391H38.957z"/>
	</g>
</g>
</svg>