<?xml version="1.0" encoding="iso-8859-1"?>
<!-- Uploaded to: SVG Repo, www.svgrepo.com, Generator: SVG Repo Mixer Tools -->
<svg version="1.1" id="Layer_1" xmlns="http://www.w3.org/2000/svg" xmlns:xlink="http://www.w3.org/1999/xlink" 
	 viewBox="0 0 512 512" xml:space="preserve">
<rect x="47.772" y="7.833" style="fill:#F9B233;" width="416.278" height="40.03"/>
<rect x="47.772" y="47.859" style="fill:#CBBBA0;" width="424.288" height="368.248"/>
<rect x="135.827" y="127.912" style="fill:#F9B233;" width="240.159" height="24.016"/>
<g>
	<rect x="79.798" y="151.932" style="fill:#E30613;" width="32.022" height="72.049"/>
	<rect x="400.006" y="151.932" style="fill:#E30613;" width="32.022" height="72.049"/>
</g>
<rect x="143.837" y="151.932" style="fill:#86CBED;" width="224.149" height="112.08"/>
<g>
	<rect x="95.808" y="432.121" style="fill:#575756;" width="48.033" height="72.049"/>
	<rect x="367.986" y="432.121" style="fill:#575756;" width="48.033" height="72.049"/>
</g>
<rect x="103.807" y="264.001" style="fill:#F9B233;" width="304.209" height="136.089"/>
<rect x="79.798" y="400.101" style="fill:#CBBBA0;" width="352.238" height="32.022"/>
<g>
	<rect x="207.877" y="288.021" style="fill:#FFFFFF;" width="96.059" height="112.08"/>
	<rect x="135.827" y="296.032" style="fill:#FFFFFF;" width="40.03" height="48.033"/>
	<rect x="335.966" y="296.032" style="fill:#FFFFFF;" width="40.03" height="48.033"/>
</g>
<g>
	<rect x="135.827" y="344.061" style="fill:#E30613;" width="40.03" height="24.016"/>
	<rect x="335.966" y="344.061" style="fill:#E30613;" width="40.03" height="24.016"/>
</g>
<g>
	<rect x="223.887" y="312.209" style="fill:#1D1D1B;" width="64.04" height="15.665"/>
	<rect x="223.887" y="336.229" style="fill:#1D1D1B;" width="64.04" height="15.665"/>
	<rect x="223.887" y="360.238" style="fill:#1D1D1B;" width="64.04" height="15.665"/>
	<rect x="135.827" y="120.079" style="fill:#1D1D1B;" width="240.159" height="15.665"/>
	<path style="fill:#1D1D1B;" d="M183.691,288.195h-55.692v87.714h55.692V288.195z M168.026,303.86v32.368h-24.362V303.86H168.026z
		 M143.664,360.242v-8.351h24.362v8.351H143.664z"/>
	<path style="fill:#1D1D1B;" d="M383.826,288.195h-55.692v87.714h55.692V288.195z M368.161,303.86v32.368h-24.362V303.86H368.161z
		 M343.799,360.242v-8.351h24.362v8.351H343.799z"/>
	<path style="fill:#1D1D1B;" d="M39.94,0v423.94h32.021v16.011h16.011V512h63.698v-72.049h208.486V512h63.697v-72.049h16.011V423.94
		h32.022V0H39.94z M136.005,496.335h-32.368v-56.383h32.368V496.335z M408.187,496.335h-32.367v-56.383h32.367V496.335z
		 M424.198,424.286H87.626V407.93h8.352h7.833h304.205h7.833h8.351L424.198,424.286L424.198,424.286z M400.182,271.838v120.427
		h-88.404V280.189H200.047v112.076h-88.404V271.838H400.182z M151.67,256.173v-96.41h208.486v96.41H151.67z M296.112,295.854v96.41
		h-80.399v-96.41H296.112z M456.22,408.275h-16.357v-16.011h-24.016V256.173h-40.027v-80.399h16.357v56.038h47.686v-87.714h-47.686
		v16.011h-16.357v-16.011H136.005v16.011h-16.357v-16.011H71.961v87.714h47.687v-56.038h16.357v80.399H95.978v136.092H71.961v16.011
		H55.605V55.692h400.616v352.583H456.22z M407.843,216.146v-56.383h16.356v56.383H407.843z M103.983,159.763v56.383H87.626v-56.383
		H103.983z M456.22,40.027H55.605V15.665h400.616v24.362H456.22z"/>
</g>
<g>
	<rect x="71.788" y="72.049" style="fill:#FFFFFF;" width="16.011" height="15.665"/>
	<rect x="424.026" y="72.049" style="fill:#FFFFFF;" width="16.011" height="15.665"/>
</g>
<path style="fill:#1D1D1B;" d="M343.799,247.995h-15.665c0-8.923-7.259-16.183-16.183-16.183s-16.183,7.26-16.183,16.183h-15.665
	c0-17.561,14.288-31.848,31.849-31.848S343.799,230.433,343.799,247.995z"/>
<g>
	
		<rect x="204.072" y="170.97" transform="matrix(-0.7071 -0.7071 0.7071 -0.7071 228.8396 470.6933)" style="fill:#FFFFFF;" width="15.664" height="33.964"/>
	
		<rect x="224.051" y="162.675" transform="matrix(-0.7071 -0.7071 0.7071 -0.7071 248.8009 518.972)" style="fill:#FFFFFF;" width="15.665" height="90.565"/>
</g>
</svg>