<?xml version='1.0' encoding='iso-8859-1'?>
<!DOCTYPE svg PUBLIC '-//W3C//DTD SVG 1.1//EN' 'http://www.w3.org/Graphics/SVG/1.1/DTD/svg11.dtd'>
<!-- Uploaded to: SVG Repo, www.svgrepo.com, Generator: SVG Repo Mixer Tools -->
<svg fill="#000000" height="800px" width="800px" version="1.1" xmlns="http://www.w3.org/2000/svg" viewBox="0 0 473.66 473.66" xmlns:xlink="http://www.w3.org/1999/xlink" enable-background="new 0 0 473.66 473.66">
  <g>
    <path d="m219.638,149.463c-6.903,0-12.5,5.597-12.5,12.5v106c0,6.903 5.597,12.5 12.5,12.5s12.5-5.597 12.5-12.5v-106c0-6.903-5.597-12.5-12.5-12.5z"/>
    <path d="m269.138,149.463c-6.903,0-12.5,5.597-12.5,12.5v106c0,6.903 5.597,12.5 12.5,12.5s12.5-5.597 12.5-12.5v-106c0-6.903-5.597-12.5-12.5-12.5z"/>
    <path d="m318.638,149.463c-6.903,0-12.5,5.597-12.5,12.5v106c0,6.903 5.597,12.5 12.5,12.5s12.5-5.597 12.5-12.5v-106c0-6.903-5.597-12.5-12.5-12.5z"/>
    <path d="m463.5,153.432c-6.786-1.292-13.327,3.156-14.621,9.937l-9.376,49.157-8.619-74.256c-0.459-3.956-2.776-7.456-6.238-9.425l-51-29c-1.883-1.071-4.012-1.634-6.179-1.634h-203c-6.903,0-12.5,5.597-12.5,12.5v38.498h-79.817c-5.747,0-10.753,3.918-12.134,9.497l-15.253,61.627-37.481,17.217c-4.438,2.039-7.282,6.475-7.282,11.359v70.31c0,6.904 5.597,12.5 12.5,12.5h41.689c1.546,24.372 21.855,43.73 46.61,43.73 24.757,0 45.067-19.361 46.611-43.735h170.928c1.544,24.374 21.854,43.735 46.611,43.735 25.759,0 46.716-20.957 46.716-46.716 0-1.128-0.054-2.244-0.134-3.353l31.593-19.764c2.982-1.865 4.981-4.863 5.633-8.206 0.004-0.017 0.013-0.032 0.016-0.049l24.663-129.309c1.294-6.781-3.155-13.326-9.936-14.62zm-381.567,20.777h22.725v42.466h-33.236l10.511-42.466zm18.866,176.24c-11.974,0-21.716-9.742-21.716-21.716s9.742-21.716 21.716-21.716 21.716,9.742 21.716,21.716-9.742,21.716-21.716,21.716zm0-68.431c-17.803,0-33.308,10.014-41.19,24.702h-34.609v-49.796l33.192-15.248h58.965c6.904,0 12.5-5.596 12.5-12.5v-54.966h22.313v132.505h-9.984c-7.882-14.686-23.385-24.697-41.187-24.697zm264.15,68.431c-11.974,0-21.716-9.742-21.716-21.716s9.742-21.716 21.716-21.716c11.975,0 21.716,9.742 21.716,21.716s-9.742,21.716-21.716,21.716zm37.828-49.08c-8.497-11.713-22.284-19.351-37.828-19.351-17.802,0-33.305,10.011-41.187,24.697h-146.792l-.002-183.503h187.195l42.619,24.234 16.385,141.168-20.39,12.755z"/>
  </g>
</svg>