<?xml version="1.0" encoding="utf-8"?>
<!-- Uploaded to: SVG Repo, www.svgrepo.com, Generator: SVG Repo Mixer Tools -->
<svg width="800px" height="800px" viewBox="-41.03 0 332.464 332.464" xmlns="http://www.w3.org/2000/svg"><defs><style>.a{fill:#a98a75;}.b{fill:#ffffff;}.c{fill:#211715;}.d{fill:#f8b8b4;}</style></defs><path class="a" d="M214.614,86.065c2.689,5.059,9.023,9.223,12.456,11.875,13.943,10.769,23.191,24.937,20.461,42.342-.365,2.331-.915,6.405-2.841,8.917a28.991,28.991,0,0,1-14.6,14.16c-6.818,3.1-19.579,11.072-31.111,14.556C183.023,167.7,77.527,75.319,77.527,75.319a92.468,92.468,0,0,1,2.105-31.667C82.02,34.859,87.1,25.2,93.558,18.812,104.74,7.746,120.507,1.791,139.408,2.487c11.928.439,23.62,3.672,35.652,13.878l8.625,6.439c24.972,20.207,22.2,50.848,31.5,64.163"/><path class="b" d="M175.676,84.4q1.244.856,2.556,1.71c3.612,2.349,7.311,3.809,10.689,5.836a22.028,22.028,0,0,1-3.016,10.573,21.042,21.042,0,0,1-8.828,8.521,15.393,15.393,0,0,1-7.788.973l-.548,1.05c-1.159,1.908-3.779,5.188-3.779,5.188a74.445,74.445,0,0,1-7.03,7.462q.981,5.13,1.965,10.262a27.755,27.755,0,0,0,1.51,5.676c2.067,4.867,6.661,8.1,11.033,11.074l2.836,1.929a80.577,80.577,0,0,1-45.63,14.654c-6.413,0-12.929-.816-18.9-3.5a30.385,30.385,0,0,1-13.433-11.843c4.222-1.532,9.118-3.229,12.134-4.594,3.106-1.092,7.087-3.237,6.677-7.05l.1-2.757c-10.735-.649-19.469-4.726-27.338-12.586-8.1-8.088-10.8-19.843-10.935-32.556-.077-7.33.014-15.282-.243-23.261l6.607-2.7q4.135-1.933,8.068-4.268c5.834,0,12.265,0,12.265,0A183.277,183.277,0,0,0,134,46.535c.909.06,12.081.352,12.081.352,2.649,7.442,5.185,14.518,10.126,20.375A102.011,102.011,0,0,0,175.676,84.4Z"/><path class="c" d="M113.719,142.324a2.6,2.6,0,0,1-.5,2.031,6.459,6.459,0,0,1-2.045,1.633,40.256,40.256,0,0,1-5.543,2.384c-4.541,1.763-9.187,3.25-13.7,5.075A2.475,2.475,0,0,0,90.25,156.4a2.416,2.416,0,0,0,2.952,1.676c5.009-2.023,10.182-3.616,15.183-5.662,4.275-1.749,10.6-4.094,10.134-10.089a2.459,2.459,0,0,0-2.4-2.4,2.419,2.419,0,0,0-2.4,2.4Z"/><path class="d" d="M56.546,182.91c2.558-5.688,5.647-9.975,11.339-15.274,8.409-7.829,16.172-10.6,28.687-14.929a30.437,30.437,0,0,0,14.169,13.1c5.976,2.682,12.492,3.5,18.9,3.5a80.771,80.771,0,0,0,47.242-15.8l27.183,8.138c3.781,4.48,8.617,9.054,11.726,14,6.862,10.921,9.025,19.624,10.2,32.369a259.025,259.025,0,0,1,.736,39.5c-.634,9.673-1.056,17.919-2.565,29.178-1.279,9.542-4.146,23.1-11.495,29.373-2.212,2.39-7.791,6.637-12.486,7.544a21.554,21.554,0,0,1-6.378.168c.336,1.907.571,3.248.571,3.248.749,3.878,1.429,8.066,2.483,13.023-30.3,0-133.955,0-133.955,0,1.808-19.892,3.155-39.87,3.328-47.642.033-1.482.056-2.884.069-4.221-.687.554-1.125.905-1.125.905-5.926,7.465-20.356,13.666-28.821,12.115a21.632,21.632,0,0,1-13.629-9.308,57.281,57.281,0,0,1-6.937-15.5c-2.036-7.676-5.008-26.3-4.152-33.4a11.462,11.462,0,0,1,7.014-6.479L54.6,187.719C55.24,185.99,55.875,184.4,56.546,182.91Z"/><path class="c" d="M100.532,148.8c-7.993,2.789-16.277,5.256-23.72,9.369a55.937,55.937,0,0,0-18.223,16.271,53.443,53.443,0,0,0-6.3,12.643,2.421,2.421,0,0,0,1.676,2.952,2.451,2.451,0,0,0,2.952-1.676,50.256,50.256,0,0,1,5.038-10.364,49.264,49.264,0,0,1,8.024-9.027,55.72,55.72,0,0,1,17.937-10.614c4.585-1.765,9.254-3.307,13.891-4.925a2.459,2.459,0,0,0,1.676-2.952,2.421,2.421,0,0,0-2.952-1.677Z"/><path class="c" d="M94.427,153.787c12.678,22.868,44.4,20.46,65.288,11.971A87.039,87.039,0,0,0,178.1,155.581a2.471,2.471,0,0,0,.861-3.284,2.42,2.42,0,0,0-3.284-.861,81.264,81.264,0,0,1-31.32,13.971,72.87,72.87,0,0,1-16.727,1.474c-5.831-.166-11.825-1.12-17.063-3.811a28.633,28.633,0,0,1-11.995-11.706c-1.5-2.7-5.645-.284-4.145,2.423Z"/><path class="b" d="M26.447,212.016a75.794,75.794,0,0,0-.026-15.091c-.216-1.595-.534-3.173-.851-4.751q-1.173-5.832-2.347-11.664c-1.786-.277-3.453-.572-4.121-.739-8.558-2.129-13.229-9.936-15.095-17.438C2.088,154.616-.018,142.6,9.945,137.97c7.564-1.941,27.319-6.294,42.477-8.954,6.519-1.143,12.168-2.123,19.619-2.84,2.808-.271,7.426,1.836,9.213,4.545,4.565,6.921,6.388,17.55,4.92,25.19-.5,2.966-3.364,5.051-4.869,5.609-11.284,4.181-17.489,6.76-29.329,11.08-1.163,1.953-4.212,8.6-5.375,10.551l-2.276,3.825a83.781,83.781,0,0,0-2.6,22.944Z"/><path class="b" d="M71.624,126.216c-4.909.484-9.043,1.082-13.187,1.768l2.226.493c6.621,1.466,10.8,6.867,12.413,13.214A48.911,48.911,0,0,1,74.72,152.6c-.03,5.1.089,9.016-2.7,11.469l-1.934,1.7c3.4-1.307,6.945-2.661,11.221-4.245,1.5-.558,4.366-2.643,4.869-5.609,1.468-7.64-.355-18.269-4.92-25.19-1.787-2.709-6.405-4.816-9.213-4.545Z"/><path class="c" d="M212.541,87.277c2.483,4.528,6.716,7.791,10.775,10.828a78.748,78.748,0,0,1,10.89,9.55c6.358,6.895,10.976,15.536,11.371,25.051a39.961,39.961,0,0,1-.531,8.034c-.407,2.525-.889,5.143-2.428,7.248a2.417,2.417,0,0,0,.861,3.284,2.455,2.455,0,0,0,3.283-.861,17.4,17.4,0,0,0,2.7-7.143,52.583,52.583,0,0,0,.923-7.584,38.9,38.9,0,0,0-2.468-15.163c-3.808-10.066-11.2-18.174-19.632-24.653-4.186-3.216-8.994-6.266-11.6-11.014-1.485-2.709-5.632-.29-4.145,2.423Z"/><path class="c" d="M206.273,111.086c3.28,4.659,4.638,10.148,5,15.774.178,2.794.15,5.6.05,8.395-.108,3.015-.244,5.976-1.552,8.755a2.469,2.469,0,0,0,.861,3.284,2.421,2.421,0,0,0,3.284-.861,25.616,25.616,0,0,0,2.169-10.194,89.73,89.73,0,0,0-.012-9.379c-.406-6.428-1.895-12.86-5.651-18.2a2.464,2.464,0,0,0-3.284-.861,2.419,2.419,0,0,0-.861,3.283Z"/><path class="c" d="M18.019,224.218a14.3,14.3,0,0,0-5.461,3.274c-1.444,1.417-3.094,3.555-3.326,5.615a44.592,44.592,0,0,0,.127,8.582,169.1,169.1,0,0,0,3.28,21.816,58.98,58.98,0,0,0,3.192,10.3A45.117,45.117,0,0,0,22.457,285.5a24.046,24.046,0,0,0,10.934,7.442,22.14,22.14,0,0,0,11.011.37,42.84,42.84,0,0,0,12.421-4.572A33.108,33.108,0,0,0,66.879,280.8a2.472,2.472,0,0,0,0-3.394,2.417,2.417,0,0,0-3.394,0c-3.889,4.82-9.764,8.084-15.567,10.019a27.54,27.54,0,0,1-8.8,1.632,16.324,16.324,0,0,1-8.817-2.892C24.355,282.24,21.082,274.939,18.9,268.4a100.9,100.9,0,0,1-3.556-16.8c-.521-3.443-.952-6.9-1.221-10.375a43.208,43.208,0,0,1-.079-8.208l-.328,1.211a9.6,9.6,0,0,1,5.58-5.376c2.9-1,1.657-5.635-1.276-4.629Z"/><path class="c" d="M63.03,222.967a63.089,63.089,0,0,0-1.682,9.953c-.153,3.168-.031,6.374.071,9.542.11,3.447.29,6.9.642,10.329.329,3.206.9,6.381,1.23,9.587,1.324,12.844.419,25.848-.461,38.691q-.994,14.508-2.32,28.992a2.417,2.417,0,0,0,2.4,2.4,2.452,2.452,0,0,0,2.4-2.4c1.357-14.961,2.649-29.967,3.242-44.981a171.519,171.519,0,0,0-.193-19.7c-.5-6.568-1.682-12.982-2-19.568q-.279-5.668-.234-11.35a51.085,51.085,0,0,1,1.539-10.217c.64-3.013-3.986-4.3-4.629-1.276Z"/><path class="c" d="M106.213,116.952a17.2,17.2,0,0,0,7.924,2.365,16.912,16.912,0,0,0,4.106-.2,25.235,25.235,0,0,0,4.167-1.369,2.4,2.4,0,1,0-1.276-4.628,29.749,29.749,0,0,1-3.8,1.3c-.194.039-.834.1-.311.062-.3.02-.6.056-.9.069a16.222,16.222,0,0,1-1.778-.023c-.285-.019-.57-.047-.853-.079-.235-.025-.233-.041,0,0-.141-.026-.283-.045-.424-.07a17.318,17.318,0,0,1-1.757-.4c-.3-.084-.591-.177-.881-.279-.163-.057-.809-.331-.348-.119a11.667,11.667,0,0,1-1.45-.777,2.418,2.418,0,0,0-3.283.861,2.453,2.453,0,0,0,.861,3.284Z"/><path class="c" d="M127.165,88.752c-.438-2.636.853-8.391,5.715-8.241,6.333.891,5.723,7.977,3.144,11C133.913,93.986,128.625,94.422,127.165,88.752Z"/><path class="c" d="M89.377,84.871c-.379-2.638.856-8.417,5.311-8.31,5.8.836,5.176,7.943,2.785,11C95.515,90.057,90.664,90.541,89.377,84.871Z"/><path class="c" d="M108.39,93.03c-.954,1.294-1.881,2.616-2.718,3.989a5.105,5.105,0,0,0-.757,1.75,3.528,3.528,0,0,0,.063,1.738,3.858,3.858,0,0,0,.965,1.5,5.057,5.057,0,0,0,1.994,1.223c.3.105.619.137.928.214a2.4,2.4,0,0,0,1.276-4.628,7.92,7.92,0,0,1-1.076-.272l.573.242a2.608,2.608,0,0,1-.543-.328l.485.375a3.742,3.742,0,0,1-.49-.5l.375.486a.76.76,0,0,1-.1-.166l.242.574a.8.8,0,0,1-.054-.178l.085.638a1.42,1.42,0,0,1-.007-.284l-.086.638a2.224,2.224,0,0,1,.138-.494l-.242.574a16.47,16.47,0,0,1,1.543-2.48c.5-.739,1.02-1.472,1.552-2.192a2.416,2.416,0,0,0,.242-1.85,2.448,2.448,0,0,0-1.1-1.434,2.423,2.423,0,0,0-1.849-.242,2.778,2.778,0,0,0-1.435,1.1Z"/><path class="c" d="M152.152,133.334a68.9,68.9,0,0,0,11.836-10.307,60.178,60.178,0,0,0,6.826-8.752c1.625-2.637-2.525-5.05-4.145-2.423-.479.777-1.005,1.523-1.543,2.259q-.418.574-.849,1.141l-.391.512c-.4.528.286-.361-.074.1-1.024,1.3-2.105,2.551-3.218,3.773a63.537,63.537,0,0,1-10.864,9.557,2.46,2.46,0,0,0-.861,3.283,2.42,2.42,0,0,0,3.283.861Z"/><path class="c" d="M176.757,14.668C168.537,7.743,158.969,2.741,148.3.979a73.009,73.009,0,0,0-29.953,1.277,58.921,58.921,0,0,0-24.4,12.9c-7.678,6.832-13.04,16.2-16.074,25.958a76.1,76.1,0,0,0-2.881,15.963,91.335,91.335,0,0,0,.138,18.238,2.473,2.473,0,0,0,2.4,2.4,2.415,2.415,0,0,0,2.4-2.4C77.8,56.574,81.087,35.108,94.705,21.064,107.335,8.04,126.069,3.426,143.731,5.177a54.174,54.174,0,0,1,29.632,12.885,2.464,2.464,0,0,0,3.394,0,2.42,2.42,0,0,0,0-3.394Z"/><path class="c" d="M139.367,133.481a60.744,60.744,0,0,1-21.388,3.769,38.648,38.648,0,0,1-18.482-5,36.872,36.872,0,0,1-13.88-13.595C82.368,112.793,81,106.03,80.536,99.4c-.31-4.473-.222-8.971-.236-13.451-.015-4.929-.046-9.858-.2-14.784-.1-3.082-4.9-3.095-4.8,0,.277,8.856-.09,17.742.339,26.59.358,7.388,1.669,14.8,4.9,21.509,6.253,13,20.188,21.323,34.28,22.6,8.8.8,17.531-.9,25.828-3.759,2.9-1,1.656-5.638-1.276-4.628Z"/><path class="c" d="M164.8,112.948c2.954,1.754,6.49,1.846,9.794,1.3a16.846,16.846,0,0,0,8.068-4.018A25.345,25.345,0,0,0,191.3,92.594c.179-3.086-4.622-3.076-4.8,0a20.6,20.6,0,0,1-6.726,13.787,18.986,18.986,0,0,1-3.553,2.412l-.358.175q.475-.189.081-.034c-.2.064-.4.143-.6.206a14.579,14.579,0,0,1-1.474.372,9.683,9.683,0,0,1-6.651-.708c-2.663-1.581-5.08,2.567-2.423,4.144Z"/><path class="c" d="M156.24,129.607c.658,3.434,1.16,6.949,2.062,10.328a19.365,19.365,0,0,0,4.557,8.167,40.306,40.306,0,0,0,6.765,5.595c2.907,2.027,5.857,3.994,8.788,5.986,2.561,1.742,4.965-2.416,2.423-4.145-2.716-1.846-5.441-3.679-8.146-5.541a38.373,38.373,0,0,1-6.174-5.009c-4.23-4.439-4.545-10.909-5.646-16.657a2.425,2.425,0,0,0-2.953-1.677,2.451,2.451,0,0,0-1.676,2.953Z"/><path class="c" d="M192.068,317.671c.836,4.34,1.566,8.7,2.482,13.023a2.417,2.417,0,0,0,2.953,1.676,2.457,2.457,0,0,0,1.676-2.952c-.917-4.325-1.647-8.683-2.483-13.023a2.414,2.414,0,0,0-2.952-1.677,2.463,2.463,0,0,0-1.676,2.953Z"/><path class="c" d="M202.374,163.345c3.349,3.945,7.154,7.545,10.171,11.763a57.487,57.487,0,0,1,6.787,12.64c3.448,8.945,4.265,18.56,4.875,28.046a259.534,259.534,0,0,1,.019,33.4c-.629,9.776-1.225,19.582-2.716,29.273a80.212,80.212,0,0,1-3.291,14c-1.447,4.195-3.455,8.369-6.721,11.453-2.251,2.125,1.148,5.515,3.394,3.394,6.446-6.085,9.054-15.572,10.64-24.006,1.86-9.889,2.583-20,3.232-30.03a291.167,291.167,0,0,0,.459-33.747c-.522-10.22-1.124-20.822-4.382-30.6a65.428,65.428,0,0,0-7.2-14.84c-3.361-5.183-7.9-9.447-11.876-14.134a2.421,2.421,0,0,0-3.394,0,2.452,2.452,0,0,0,0,3.4Z"/><path class="b" d="M174.583,145.023c0,.843.032,2.012.075,3.259l-1.037-.08a6.612,6.612,0,0,0-5.63,2.969,13.525,13.525,0,0,0-1.58,5.238c-.566,3.793-.716,13.016-1.255,15.8-.927,4.913-7.3,6.271-9.94,11.212-1.369,2.566-1.405,5.753-1.5,8.751-.09,2.734,1.441,24.18,1.83,28.764l.193,2.271c8.186-3.083,20.824-7.681,30.18-10.774-.053-.107-.081-.17-.081-.17-1.29-3.051-3.354-9.053-2.643-12.288.591-2.69,2.922-4.579,5.024-6.358a82.878,82.878,0,0,0,11.729-12.185,22.638,22.638,0,0,0,2.588-3.907c1.879-3.832,1.772-8.3,1.625-12.564-.349-10.122-.984-20.873-6.053-29.851a6.72,6.72,0,0,0-3.472-3.289,2.8,2.8,0,0,0-4.142,2.192c-.3-.58-.525-1.012-.525-1.012-1.036-2.031-4.437-2.283-5.408-2.05a4.479,4.479,0,0,0-3.216,4.123,31.553,31.553,0,0,0,.231,4.69s.007.081.023.224a4.019,4.019,0,0,0-.665-.346,4.426,4.426,0,0,0-3.483.027c-2.463,1.044-2.661,2.725-2.829,4.338C174.594,144.238,174.584,144.587,174.583,145.023Z"/><path class="c" d="M192.755,134.529c.365-.822.483-.745,1.316-.315a5.372,5.372,0,0,1,2.169,2.485,37.383,37.383,0,0,1,3.4,8.945c1.551,6.175,1.878,12.56,2.1,18.9.113,3.18.3,6.463-.508,9.573-.778,2.991-2.723,5.374-4.67,7.7a82.691,82.691,0,0,1-7.047,7.44c-2.315,2.16-5.018,4.015-6.934,6.562-3.747,4.982-1.22,11.933.936,17.084a2.483,2.483,0,0,0,2.953,1.677,2.416,2.416,0,0,0,1.676-2.953,39.1,39.1,0,0,1-2.5-8,6.071,6.071,0,0,1,1.974-6.294c2.538-2.475,5.351-4.637,7.843-7.171a82.289,82.289,0,0,0,7.072-8.194,19.755,19.755,0,0,0,3.925-10.136,68.025,68.025,0,0,0-.039-10.264c-.319-7.019-.948-14.187-3.238-20.874-1.091-3.186-2.512-7.262-5.141-9.536-2.839-2.454-7.639-3.1-9.435.947a2.475,2.475,0,0,0,.861,3.283,2.418,2.418,0,0,0,3.284-.861Z"/><path class="c" d="M183.972,139.767c-.087-.9-.184-1.8-.221-2.7a8.707,8.707,0,0,1,.085-2.439,2.872,2.872,0,0,1,.981-1.222.535.535,0,0,1,.378-.137q-.61.063-.169.024c.291.024.589-.013.882.014a4.83,4.83,0,0,1,1.455.415c.376.208.416.287.665.752a18.822,18.822,0,0,1,1.434,4.52,63.862,63.862,0,0,1,1.728,10.883c.341,5.136.832,10.263.8,15.416-.021,3.09,4.779,3.093,4.8,0,.032-4.679-.365-9.338-.7-14a81.272,81.272,0,0,0-1.471-11.257c-.628-2.948-1.162-6.522-3.073-8.955a7.756,7.756,0,0,0-8.85-1.968c-4.2,2.039-3.9,6.737-3.522,10.657a2.466,2.466,0,0,0,2.4,2.4,2.417,2.417,0,0,0,2.4-2.4Z"/><path class="c" d="M173.621,145.8a9.243,9.243,0,0,0-8.808,6.619c-.983,2.983-1.086,6.311-1.276,9.425-.179,2.936-.271,5.885-.571,8.812-.015.142-.1.811-.058.538.041-.288-.044.269-.066.378a4.094,4.094,0,0,1-.686,1.7,12.37,12.37,0,0,1-2.659,2.553c-2.717,2.124-5.447,4.14-6.83,7.423-1.252,2.971-1.409,6.441-1.354,9.635.076,4.376.452,8.759.744,13.124.334,4.979.665,9.959,1.085,14.931a2.462,2.462,0,0,0,2.4,2.4,2.419,2.419,0,0,0,2.4-2.4c-.739-8.75-1.374-17.531-1.766-26.3a46.689,46.689,0,0,1,.082-5.709,10.581,10.581,0,0,1,1.371-4.879,13.064,13.064,0,0,1,3-3.074c2.219-1.786,4.8-3.378,6.1-6.021,1.149-2.331,1.141-5.1,1.3-7.649.2-3.209.3-6.432.634-9.631.016-.146.109-.918.083-.732-.051.364.054-.331.052-.319.058-.354.116-.708.184-1.061a9.62,9.62,0,0,1,.88-2.823,4.249,4.249,0,0,1,3.767-2.136c3.087-.034,3.095-4.834,0-4.8Z"/><path class="c" d="M186.993,166.727c.07-3.992-.031-7.989-.1-11.98-.03-1.746-.04-3.5-.1-5.241a41.24,41.24,0,0,0-.46-4.848,12.749,12.749,0,0,0-1.254-4.465,6.935,6.935,0,0,0-12.8,3.278c-.4,3.274.1,6.695.151,9.982.084,5.1-.137,10.211-.154,15.311-.01,3.089,4.79,3.094,4.8,0,.015-4.49.071-8.983.139-13.473.045-3.02-.152-6.034-.217-9.053a8.589,8.589,0,0,1,.277-3.461,2.386,2.386,0,0,1,1.231-.946,2.063,2.063,0,0,1,2.458.832,11.343,11.343,0,0,1,.781,3.564,39.6,39.6,0,0,1,.274,4.3c.031,1.457.055,2.915.08,4.372.066,3.94.164,7.887.095,11.828-.053,3.09,4.747,3.09,4.8,0Z"/><path class="c" d="M181.988,24.5a61.818,61.818,0,0,1,18.556,26.359c3.229,8.494,4.966,17.4,7.619,26.071a40.376,40.376,0,0,0,4.95,11.246,2.463,2.463,0,0,0,3.284.861,2.423,2.423,0,0,0,.861-3.284,31.88,31.88,0,0,1-4.24-9.369c-1.272-4.031-2.266-8.146-3.343-12.231-2.574-9.768-5.692-19.505-11.108-28.112a61.461,61.461,0,0,0-13.185-14.936,2.471,2.471,0,0,0-3.394,0,2.419,2.419,0,0,0,0,3.395Z"/><path class="c" d="M206.661,129.171c4.737,4.305,7.6,10.519,10.169,16.264,1.274,2.844,2.453,5.728,3.678,8.593,1.37,3.2,3.418,6.587,6.615,8.257,3.813,1.993,8.218.966,11.568-1.463a2.47,2.47,0,0,0,.861-3.284,2.417,2.417,0,0,0-3.283-.861c-2.186,1.585-5.012,2.673-7.3,1.117-2.444-1.66-3.627-4.563-4.733-7.179-2.425-5.737-4.78-11.549-7.989-16.907a34.606,34.606,0,0,0-6.187-7.931c-2.282-2.074-5.686,1.31-3.4,3.394Z"/><path class="c" d="M136.192,41.894a185.3,185.3,0,0,1-32.763,20.231,2.421,2.421,0,0,0-.861,3.283,2.452,2.452,0,0,0,3.284.861,185.222,185.222,0,0,0,32.763-20.231,2.48,2.48,0,0,0,.861-3.283,2.415,2.415,0,0,0-3.284-.861Z"/><path class="c" d="M112.4,44.732A92.866,92.866,0,0,1,83.1,66.4a2.419,2.419,0,0,0-.861,3.283,2.452,2.452,0,0,0,3.283.861,96.358,96.358,0,0,0,30.274-22.413c2.071-2.284-1.314-5.689-3.394-3.394Z"/><path class="c" d="M210.886,304.467c-2.919,3.053-6.987,5.922-11.169,6.8a22.354,22.354,0,0,1-13.734-2.092c-8.013-4.061-13.176-11.5-16.846-19.441-6.822-14.762-10.88-30.455-14.695-46.207-1.444-5.966-2.8-11.951-4.169-17.934l-1.1,2.71c-.749.321-.022.011.353-.141.4-.163.81-.323,1.217-.483q1.678-.659,3.366-1.3,4.743-1.806,9.508-3.55c7.379-2.71,14.782-5.368,22.241-7.85,3.155-1.05,6.32-2.094,9.535-2.943l-2.952-1.677c4.85,12.477,10.343,24.7,14.468,37.448.947,2.927,5.584,1.675,4.629-1.276-4.125-12.749-9.618-24.971-14.468-37.448a2.461,2.461,0,0,0-2.953-1.676c-6.557,1.733-12.975,4.071-19.367,6.323q-10.7,3.774-21.318,7.793c-2.238.849-4.481,1.691-6.682,2.634a2.419,2.419,0,0,0-1.1,2.71c3.156,13.793,6.3,27.6,10.285,41.187a178.824,178.824,0,0,0,8.7,23.307c4,8.863,9.652,16.686,18.246,21.586a27.7,27.7,0,0,0,17.165,3.113c5.3-.791,10.59-4.386,14.239-8.2,2.135-2.233-1.254-5.632-3.394-3.394Z"/><path class="c" d="M143.77,47.525c1.872,5.259,3.753,10.587,6.544,15.443a49.039,49.039,0,0,0,7.646,9.759A95.161,95.161,0,0,0,182.2,91.093c4.721,2.4,9.334,4.724,12.292,9.315,1.668,2.588,5.825.184,4.145-2.423a27.936,27.936,0,0,0-10.992-9.5c-2.029-1.064-4.1-2.045-6.1-3.177a75.7,75.7,0,0,1-7.008-4.644,105.308,105.308,0,0,1-11.446-9.606,51.257,51.257,0,0,1-7.325-8.386c-3.328-5.05-5.355-10.767-7.371-16.428a2.461,2.461,0,0,0-2.952-1.677,2.422,2.422,0,0,0-1.676,2.953Z"/><path class="c" d="M25.7,178.467c-2.933-.416-6.119-.7-8.82-2.011a17,17,0,0,1-6.38-5.426c-3.118-4.373-4.512-9.635-5.333-14.876-.675-4.307-.781-9.73,2.087-13.208a10.133,10.133,0,0,1,2.84-2.356,10.1,10.1,0,0,1,2.7-.858c2.406-.587,4.82-1.144,7.235-1.691,13.4-3.029,26.877-5.8,40.441-7.972,3.68-.589,7.374-1.091,11.084-1.446a9.079,9.079,0,0,1,6.89,2.5c2.037,1.933,3.186,5.2,4.026,7.838A37.5,37.5,0,0,1,84.23,148.6a33.944,33.944,0,0,1-.1,4.762,7.674,7.674,0,0,1-1.022,3.752,6.693,6.693,0,0,1-2.528,2.121c-.264.135.043-.01.084-.027-.215.092-.443.164-.662.245l-1.291.481q-1.43.534-2.857,1.073c-6.3,2.38-12.574,4.841-18.884,7.2q-2.814,1.052-5.635,2.081a2.464,2.464,0,0,0-1.677,2.952,2.421,2.421,0,0,0,2.953,1.676c7.125-2.6,14.194-5.346,21.281-8.051q2.729-1.041,5.465-2.067a20.892,20.892,0,0,0,4.658-2.017,11.392,11.392,0,0,0,3.51-3.682,13.281,13.281,0,0,0,1.352-5.212,39.716,39.716,0,0,0-3.849-21.369A14.432,14.432,0,0,0,73.28,123.8a27.176,27.176,0,0,0-5.648.458c-15.1,1.819-30.092,5.01-44.936,8.281q-4.455.981-8.9,2.023c-2.6.615-5.14,1.074-7.355,2.676-5.036,3.642-6.7,9.607-6.414,15.592.577,11.932,5.922,26.708,19.064,29.4,1.762.361,3.549.62,5.329.873a2.481,2.481,0,0,0,2.952-1.677,2.417,2.417,0,0,0-1.676-2.952Z"/><path class="c" d="M48.673,184.363c2.009-3.4,3.367-7.153,5.375-10.552a2.4,2.4,0,0,0-4.145-2.422c-2.008,3.4-3.366,7.153-5.374,10.551a2.4,2.4,0,1,0,4.144,2.423Z"/><path class="c" d="M15.46,139.321c11.177,2.575,14.459,14.594,13.655,24.738a2.42,2.42,0,0,0,2.4,2.4,2.448,2.448,0,0,0,2.4-2.4,34.969,34.969,0,0,0-3.069-17.982,20.894,20.894,0,0,0-14.11-11.385c-3.007-.693-4.29,3.934-1.276,4.629Z"/><path class="c" d="M60.025,130.792c6.335,1.479,9.649,6.8,11.042,12.8A45.041,45.041,0,0,1,72.311,154.3c-.022,2.758.167,6.083-1.99,8.07-2.277,2.1,1.124,5.485,3.394,3.394,2.981-2.745,3.328-6.832,3.388-10.649a52.447,52.447,0,0,0-1.407-12.8c-1.759-7.563-6.484-14.3-14.395-16.151-3.005-.7-4.288,3.925-1.276,4.629Z"/><path class="c" d="M21.106,182.128c1,4.963,2.228,9.942,2.933,14.957.694,4.939.329,9.978.008,14.931a2.4,2.4,0,0,0,4.8,0,77.269,77.269,0,0,0-.111-15.729c-.723-5.178-1.971-10.311-3-15.435a2.4,2.4,0,0,0-4.628,1.276Z"/><path class="c" d="M42.938,182.934a93.934,93.934,0,0,0-3.613,26.986c.029,3.087,4.829,3.095,4.8,0a89.134,89.134,0,0,1,3.441-25.71c.854-2.975-3.776-4.245-4.628-1.276Z"/><path class="b" d="M38.616,179.553c-2.664.239-4.947.953-9.568,2.614a19.344,19.344,0,0,0-6.741,4.264,22.563,22.563,0,0,0-5.966,8.717c-1.506,3.753-1.308,7.982-.637,11.972s1.772,7.922,2.015,11.959c.251,4.2-.436,8.4-.127,12.587s1.837,8.614,5.37,10.87c3.081,1.969,7.123,1.9,10.56.646a20.879,20.879,0,0,0,11.037-10.1,28.352,28.352,0,0,0,2.674-7.99l.031-.158a52.386,52.386,0,0,0,7.821-2.907,5.555,5.555,0,0,0,2.45-4.35c.214-2.614-1.559-3.277-3.461-4.313a15.19,15.19,0,0,0,2.742-.673,5.737,5.737,0,0,0,3.978-4.443c.339-2.553-1.526-5.158-3.612-5.311-6.008-.683-9.8.534-17.384,1.133,6.17-1.25,11.247-2.395,18.207-3.848a5.252,5.252,0,0,0,4.168-4.181,4.676,4.676,0,0,0-1.609-4.258c-1.942-1.2-3.622-1.15-5.724-1.066l-.09-.418c.16-2.318-4.9-10.543-9.505-10.734A51.7,51.7,0,0,0,38.616,179.553Z"/><path class="c" d="M42.053,206.267c3.315-.347,6.617-.924,9.947-1.09a23.076,23.076,0,0,1,4.781.117,2.343,2.343,0,0,1,1.666,2.145,2.809,2.809,0,0,1-1.128,2.3,6.2,6.2,0,0,1-.653.41c-.1.057-.648.3-.289.157a12.616,12.616,0,0,1-1.908.552c-3.106.684-6.317,1.1-9.457,1.62-2.905.476-5.826.874-8.713,1.452a2.4,2.4,0,0,0,1.276,4.629c2.948-.591,5.933-1,8.9-1.483,2.144-.354,4.276-.776,6.42-1.126a27.654,27.654,0,0,0,4.381-.887c3.333-1.115,6.145-4,5.947-7.726a7.586,7.586,0,0,0-2.53-5.322c-1.677-1.432-3.7-1.574-5.826-1.657-4.3-.17-8.556.663-12.813,1.108a2.468,2.468,0,0,0-2.4,2.4,2.417,2.417,0,0,0,2.4,2.4Z"/><path class="c" d="M31.519,196.019a120.537,120.537,0,0,1,24.707-2.939c1.287,0,2.934.147,3.405,1.34a2.429,2.429,0,0,1-.947,2.942c-1.1.742-3.3.961-4.926,1.306q-3.071.653-6.138,1.314c-4.866,1.043-9.738,2.053-14.626,2.985a2.424,2.424,0,0,0-1.677,2.952A2.451,2.451,0,0,0,34.27,207.6c4.954-.944,9.891-1.969,14.823-3.027q3.628-.777,7.258-1.55c2.148-.454,4.093-.839,5.812-2.3,3.614-3.07,3.139-9.416-1.269-11.476-2.18-1.019-4.414-.976-6.764-.9-2.443.082-4.881.175-7.317.389a140.42,140.42,0,0,0-16.57,2.657c-3.022.634-1.743,5.262,1.276,4.628Z"/><path class="c" d="M57.15,190.3a9.42,9.42,0,0,0-1.389-4.421,22.749,22.749,0,0,0-3.374-4.748,13.2,13.2,0,0,0-4.825-3.484c-1.953-.764-4.312-.594-6.378-.594a33.944,33.944,0,0,0-11.456,2.33,25.534,25.534,0,0,0-11.143,7.453A22.725,22.725,0,0,0,12.8,201.5c-.047,5.827,2.051,11.353,2.487,17.118.431,5.681-.861,11.4.5,17.02,1.181,4.866,4.427,9.245,9.486,10.451,5.808,1.385,11.8-1.083,16.091-4.952a27.471,27.471,0,0,0,8.181-15.4,2.464,2.464,0,0,0-1.676-2.953,2.423,2.423,0,0,0-2.952,1.677,23.8,23.8,0,0,1-5.583,11.94c-2.679,2.889-6.379,5.179-10.414,5.277-4.207.1-7.082-2.5-8.257-6.407-1.389-4.62-.475-9.516-.49-14.248-.016-5.258-1.564-10.259-2.3-15.424a18.85,18.85,0,0,1,2.478-13.151,20.7,20.7,0,0,1,8.445-7.59c.408-.2,1.061-.434,1.779-.69,1.121-.4,2.245-.791,3.379-1.148.742-.233,1.489-.451,2.244-.634q.537-.13,1.08-.235c.175-.034.35-.064.525-.094.1-.016.589-.081.277-.043a36.863,36.863,0,0,1,5.717-.1,14.521,14.521,0,0,1,1.683.074c-.414-.065.587.206.515.177a7.59,7.59,0,0,1,1.8,1.185,16.932,16.932,0,0,1,3.27,3.987c.237.393.462.8.669,1.205.077.152.15.305.223.459.179.378,0-.023.081.184.108.285.194.573.282.864.191.635.041-.277.026.256-.09,3.09,4.71,3.087,4.8,0Z"/><path class="c" d="M53.814,215.945c.25.136,1.032.433,1.147.7q-.411-.324-.119-.076c.076.069.149.142.219.217.292.269-.281-.418.071.14q.169.346-.054-.129a3.159,3.159,0,0,1,.087.331q-.052-.513-.017-.084c.006.137.007.274,0,.411-.007.152-.019.3-.037.454q.048-.392-.025.024c-.08.262-.148.527-.231.789.175-.551-.074.14-.144.265-.034.059-.3.564-.358.556q.333-.42.1-.133c-.061.07-.123.138-.187.2-.113.118-.245.22-.358.339-.276.288.553-.323.1-.081-.1.056-.2.125-.31.182-.3.161-.6.292-.907.435-.362.17.521-.21-.115.046q-.3.121-.606.237c-.439.168-.881.328-1.324.484-.958.338-1.923.657-2.89.969-1.671.538-3.353,1.043-5.022,1.588a2.4,2.4,0,1,0,1.276,4.628c3.133-1.021,6.315-1.911,9.392-3.1a12.123,12.123,0,0,0,3.891-2.07,8.318,8.318,0,0,0,2.556-5.707c.159-2.685-1.483-4.554-3.7-5.767a2.4,2.4,0,1,0-2.423,4.145Z"/></svg>